<?xml version="1.0" encoding="utf-8"?>
<svg height="600px" width="800px" version="1.1" id="Capa_1" viewBox="-12.192 -1.626 303.99 205.639" xmlns="http://www.w3.org/2000/svg">
  <path style="fill:#999999;" d="M 175.489 103.39 L 175.489 82.117 L 153.698 78.65 C 152.236 72.637 149.865 66.981 146.733 61.838 L 159.691 43.977 L 162.084 28.934 L 144.649 28.934 L 126.787 41.893 C 121.644 38.761 115.988 36.39 109.976 34.929 L 106.509 13.137 L 85.236 13.137 L 81.769 34.93 C 75.757 36.391 70.101 38.762 64.959 41.895 L 64.532 28.935 L 47.096 28.935 L 32.054 43.977 L 45.014 61.841 C 41.882 66.983 39.512 72.638 38.051 78.65 L 16.256 82.117 L 16.256 103.39 L 38.051 106.857 C 39.512 112.868 41.882 118.523 45.014 123.666 L 32.054 141.53 L 47.096 156.572 L 64.532 156.572 L 64.96 143.612 C 70.102 146.744 75.758 149.115 81.769 150.576 L 85.237 172.37 L 106.51 172.37 L 109.976 150.577 C 115.988 149.116 121.644 146.746 126.787 143.613 L 144.649 156.572 L 162.085 156.572 L 159.691 141.53 L 146.733 123.668 C 149.866 118.526 152.236 112.869 153.698 106.857 L 175.489 103.39 Z M 95.874 105.43 C 88.872 105.43 83.192 99.754 83.192 92.753 C 83.192 85.751 88.872 80.075 95.874 80.075 C 102.876 80.075 108.551 85.751 108.551 92.753 C 108.551 99.754 102.876 105.43 95.874 105.43 Z"/>
  <path style="fill:#CCCCCC;" d="M 192.924 103.39 L 192.924 82.117 L 171.133 78.65 C 169.672 72.637 167.301 66.981 164.168 61.838 L 177.126 43.977 L 162.084 28.935 L 144.222 41.893 C 139.08 38.761 133.423 36.39 127.411 34.929 L 123.944 13.137 L 102.671 13.137 L 99.204 34.93 C 93.192 36.391 87.537 38.762 82.395 41.895 L 64.532 28.935 L 49.49 43.977 L 62.45 61.84 C 59.318 66.982 56.947 72.638 55.486 78.649 L 33.691 82.117 L 33.691 103.39 L 55.486 106.857 C 56.947 112.868 59.318 118.523 62.45 123.666 L 49.49 141.53 L 64.532 156.572 L 82.396 143.612 C 87.538 146.744 93.193 149.115 99.205 150.576 L 102.672 172.37 L 123.945 172.37 L 127.412 150.577 C 133.424 149.116 139.08 146.746 144.222 143.613 L 162.085 156.572 L 177.127 141.53 L 164.168 123.668 C 167.301 118.526 169.672 112.869 171.134 106.857 L 192.924 103.39 Z M 113.309 105.43 C 106.308 105.43 100.627 99.754 100.627 92.753 C 100.627 85.751 106.308 80.075 113.309 80.075 C 120.311 80.075 125.987 85.751 125.987 92.753 C 125.987 99.754 120.311 105.43 113.309 105.43 Z"/>
  <path style="fill:#999999;" d="M 113.309 52.257 C 111.809 52.257 110.332 52.339 108.873 52.5 C 88.592 54.707 72.814 71.89 72.814 92.753 C 72.814 113.62 88.592 130.798 108.873 133.005 C 110.332 133.166 111.809 133.249 113.309 133.249 C 135.672 133.249 153.805 115.12 153.805 92.753 C 153.805 70.39 135.672 52.257 113.309 52.257 Z M 100.627 92.753 C 100.627 87.311 104.059 82.668 108.877 80.874 C 110.258 80.355 111.749 80.075 113.309 80.075 C 120.311 80.075 125.987 85.751 125.987 92.753 C 125.987 99.754 120.311 105.43 113.309 105.43 C 111.749 105.43 110.258 105.15 108.877 104.632 C 104.059 102.838 100.627 98.194 100.627 92.753 Z"/>
  <path style="fill:#B3B3B3;" d="M 108.873 52.5 C 88.592 54.707 72.814 71.89 72.814 92.753 C 72.814 113.62 88.592 130.798 108.873 133.005 C 129.153 130.798 144.936 113.62 144.936 92.753 C 144.936 71.89 129.153 54.707 108.873 52.5 Z M 104.44 105.43 C 97.439 105.43 91.758 99.754 91.758 92.753 C 91.758 85.751 97.439 80.075 104.44 80.075 C 106 80.075 107.496 80.355 108.877 80.874 C 113.69 82.672 117.118 87.311 117.118 92.753 C 117.118 98.194 113.69 102.833 108.877 104.632 C 107.496 105.15 106 105.43 104.44 105.43 Z"/>
  <path style="fill:#999999;" d="M 109.027 71.39 C 97.226 71.39 87.664 80.956 87.664 92.753 C 87.664 104.554 97.226 114.116 109.027 114.116 C 120.823 114.116 130.39 104.554 130.39 92.753 C 130.39 80.956 120.823 71.39 109.027 71.39 Z M 109.027 105.43 C 102.025 105.43 96.345 99.754 96.345 92.753 C 96.345 85.751 102.025 80.075 109.027 80.075 C 116.028 80.075 121.704 85.751 121.704 92.753 C 121.704 99.754 116.028 105.43 109.027 105.43 Z"/>
  <path style="fill:#CCCCCC;" d="M 113.309 71.39 C 101.508 71.39 91.946 80.956 91.946 92.753 C 91.946 104.554 101.508 114.116 113.309 114.116 C 125.106 114.116 134.672 104.554 134.672 92.753 C 134.672 80.956 125.106 71.39 113.309 71.39 Z M 113.309 105.43 C 106.308 105.43 100.627 99.754 100.627 92.753 C 100.627 85.751 106.308 80.075 113.309 80.075 C 120.311 80.075 125.987 85.751 125.987 92.753 C 125.987 99.754 120.311 105.43 113.309 105.43 Z"/>
  <path style="fill:#999999;" d="M 113.309 80.075 C 109.932 80.075 106.863 81.392 104.592 83.553 C 107.028 85.857 108.551 89.128 108.551 92.753 C 108.551 96.377 107.028 99.649 104.592 101.952 C 106.863 104.113 109.932 105.43 113.309 105.43 C 120.311 105.43 125.987 99.754 125.987 92.753 C 125.987 85.751 120.311 80.075 113.309 80.075 Z"/>
  <g transform="matrix(0.458824, 0, 0, 0.458824, 16.256134, -10.418456)">
    <path style="fill:#999999;" d="M 535.566 300.556 L 549.479 271.377 L 523.479 271.377 L 491.619 279.003 C 486.198 271.586 479.732 265.174 472.513 259.9 L 476.96 215.951 L 450.96 215.951 L 433.822 243.874 C 424.988 242.499 415.883 242.461 406.805 243.872 L 415.668 215.95 L 389.668 215.95 L 360.488 228.037 L 368.114 259.9 C 360.698 265.32 354.287 271.786 349.014 279.004 L 343.148 271.377 L 317.148 271.377 L 305.061 300.556 L 332.987 317.696 C 331.613 326.529 331.574 335.633 332.985 344.709 L 305.06 361.848 L 317.147 391.027 L 343.147 391.027 L 349.012 383.4 C 354.432 390.815 360.897 397.226 368.114 402.499 L 360.487 434.366 L 389.666 446.452 L 415.666 446.452 L 406.806 418.525 C 415.639 419.9 424.743 419.938 433.819 418.528 L 450.957 446.452 L 476.957 446.452 L 477.131 421.807 L 472.511 402.503 C 479.927 397.083 486.339 390.618 491.613 383.399 L 523.478 391.026 L 549.478 391.026 L 535.565 361.847 L 507.641 344.709 C 509.016 335.875 509.055 326.769 507.644 317.692 L 535.566 300.556 Z M 427.518 348.589 C 417.914 352.567 406.898 348.009 402.92 338.405 C 398.942 328.801 403.509 317.788 413.113 313.81 C 422.717 309.832 433.727 314.392 437.705 323.996 C 441.683 333.601 437.123 344.611 427.518 348.589 Z"/>
    <path style="fill:#B3B3B3;" d="M 561.566 300.556 L 549.479 271.377 L 517.619 279.003 C 512.198 271.586 505.732 265.174 498.513 259.9 L 506.139 228.037 L 476.959 215.951 L 459.821 243.874 C 450.987 242.499 441.882 242.461 432.804 243.872 L 415.667 215.95 L 386.487 228.037 L 394.113 259.9 C 386.697 265.32 380.286 271.786 375.013 279.004 L 343.147 271.377 L 331.06 300.556 L 358.986 317.696 C 357.612 326.529 357.573 335.633 358.984 344.709 L 331.059 361.848 L 343.146 391.027 L 375.011 383.4 C 380.431 390.815 386.896 397.226 394.113 402.499 L 386.486 434.366 L 415.665 446.452 L 432.805 418.525 C 441.638 419.9 450.742 419.938 459.818 418.528 L 476.956 446.452 L 506.136 434.365 L 498.51 402.502 C 505.926 397.082 512.338 390.617 517.612 383.398 L 549.477 391.025 L 561.564 361.846 L 533.64 344.708 C 535.015 335.874 535.054 326.768 533.643 317.691 L 561.566 300.556 Z M 453.518 348.589 C 443.914 352.567 432.898 348.009 428.92 338.405 C 424.942 328.801 429.509 317.788 439.113 313.81 C 448.717 309.832 459.727 314.392 463.705 323.996 C 467.683 333.601 463.123 344.611 453.518 348.589 Z"/>
    <path style="fill:#999999;" d="M 446.316 271.077 C 444.088 271.077 441.895 271.2 439.729 271.438 C 409.619 274.715 386.192 300.226 386.192 331.201 C 386.192 362.183 409.619 387.687 439.729 390.964 C 441.895 391.202 444.089 391.325 446.316 391.325 C 479.518 391.325 506.44 364.41 506.44 331.201 C 506.44 297.999 479.519 271.077 446.316 271.077 Z M 427.487 331.201 C 427.487 323.122 432.583 316.228 439.735 313.564 C 441.785 312.794 443.999 312.379 446.316 312.379 C 456.711 312.379 465.138 320.806 465.138 331.201 C 465.138 341.596 456.711 350.023 446.316 350.023 C 444 350.023 441.786 349.608 439.735 348.838 C 432.583 346.174 427.487 339.28 427.487 331.201 Z"/>
    <path style="fill:#CCCCCC;" d="M 439.729 271.438 C 409.619 274.715 386.192 300.226 386.192 331.201 C 386.192 362.183 409.619 387.687 439.729 390.964 C 469.839 387.687 493.272 362.183 493.272 331.201 C 493.272 300.226 469.838 274.715 439.729 271.438 Z M 433.148 350.023 C 422.753 350.023 414.319 341.596 414.319 331.201 C 414.319 320.806 422.752 312.379 433.148 312.379 C 435.464 312.379 437.685 312.794 439.735 313.564 C 446.881 316.234 451.97 323.122 451.97 331.201 C 451.97 339.28 446.881 346.167 439.735 348.838 C 437.685 349.607 435.464 350.023 433.148 350.023 Z"/>
    <path style="fill:#999999;" d="M 439.958 299.484 C 422.437 299.484 408.241 313.687 408.241 331.201 C 408.241 348.722 422.438 362.918 439.958 362.918 C 457.472 362.918 471.675 348.721 471.675 331.201 C 471.676 313.687 457.472 299.484 439.958 299.484 Z M 439.958 350.023 C 429.563 350.023 421.129 341.596 421.129 331.201 C 421.129 320.806 429.562 312.379 439.958 312.379 C 450.354 312.379 458.78 320.806 458.78 331.201 C 458.78 341.596 450.353 350.023 439.958 350.023 Z"/>
    <path style="fill:#B3B3B3;" d="M 446.316 299.484 C 428.795 299.484 414.599 313.687 414.599 331.201 C 414.599 348.722 428.796 362.918 446.316 362.918 C 463.83 362.918 478.033 348.721 478.033 331.201 C 478.034 313.687 463.83 299.484 446.316 299.484 Z M 446.316 350.023 C 435.921 350.023 427.487 341.596 427.487 331.201 C 427.487 320.806 435.92 312.379 446.316 312.379 C 456.711 312.379 465.138 320.806 465.138 331.201 C 465.138 341.596 456.711 350.023 446.316 350.023 Z"/>
    <path style="fill:#999999;" d="M 446.316 312.379 C 441.302 312.379 436.745 314.334 433.373 317.543 C 436.99 320.963 439.252 325.82 439.252 331.201 C 439.252 336.582 436.99 341.44 433.373 344.859 C 436.745 348.067 441.302 350.022 446.316 350.022 C 456.711 350.022 465.138 341.595 465.138 331.2 C 465.138 320.805 456.711 312.379 446.316 312.379 Z"/>
  </g>
</svg>