<?xml version="1.0" encoding="utf-8"?>
<svg id="a8b740ca-1e51-43ca-93d8-3818c8833a7c" data-name="Layer 1" width="865.76" height="682.89" viewBox="0 0 829.624 556.784" xmlns="http://www.w3.org/2000/svg">
  <path d="M 433.163 541.563 L 434.163 526.903 L 442.163 531.733 L 449.663 528.903 L 464.083 539.763 C 464.335 539.952 464.483 540.249 464.483 540.563 C 464.483 541.116 464.036 541.563 463.483 541.563 L 441.903 541.563 L 440.203 537.093 C 440.145 536.951 439.954 536.925 439.86 537.047 C 439.849 537.061 439.84 537.077 439.833 537.093 L 438.653 541.553 L 433.163 541.563 Z" fill="#61a5c2"/>
  <path d="M 151.273 546.503 L 205.563 547.613 C 203.277 541.603 198.081 537.176 191.783 535.873 C 191.343 535.783 190.903 535.723 190.473 535.673 C 188.263 535.393 179.903 533.923 175.633 527.403 L 164.163 537.723 L 154.163 527.053 L 151.273 527.053 L 151.273 546.503 Z" fill="#61a5c2"/>
  <path d="M 754.563 539.723 L 754.563 527.053 L 769.443 527.053 L 783.683 538.333 C 784.153 538.695 784.055 539.43 783.507 539.655 C 783.411 539.695 783.307 539.715 783.203 539.713 L 754.563 539.723 Z" fill="#61a5c2"/>
  <polygon points="678.393 518.853 678.393 527.293 689.723 535.283 692.833 525.514 692.833 519.743 678.393 518.853" fill="#f9b499"/>
  <path d="M 754.563 520.743 L 754.563 525.743 L 757.893 533.743 C 757.893 533.743 759.443 536.623 761.663 533.743 L 769.443 527.073 L 769.443 520.633 L 754.563 520.743 Z" fill="#f9b499"/>
  <path d="M 365.033 525.823 C 365.033 525.823 353.933 539.723 359.033 544.393 C 359.033 544.393 362.143 550.833 371.033 544.393 L 375.913 540.613 C 376.097 535.736 375.832 530.852 375.123 526.023 L 369.123 530.343 L 365.033 525.823 Z" fill="#61a5c2"/>
  <path d="M 370.283 530.053 L 374.543 526.943 C 374.865 526.703 375.075 526.342 375.123 525.943 L 377.023 513.223 L 365.023 513.223 L 365.023 525.743 C 365.027 526.115 365.17 526.472 365.423 526.743 L 368.363 529.843 C 368.859 530.387 369.682 530.477 370.283 530.053 Z" fill="#f9b499"/>
  <path d="M 434.163 516.743 L 434.163 526.903 C 436.919 528.361 439.59 529.973 442.163 531.733 C 442.163 531.733 448.663 528.903 449.663 528.903 L 449.663 516.053 L 434.163 516.743 Z" fill="#f9b499"/>
  <polygon points="104.973 485.123 99.203 489.764 94.983 505.084 109.863 509.523 114.973 503.084 104.973 485.123" fill="#f9b499"/>
  <polygon points="154.163 520.623 154.163 527.063 164.163 537.723 175.653 527.403 175.653 520.623 154.163 520.623" fill="#f9b499"/>
  <rect x="7.003" y="8.173" width="814.88" height="445.65" rx="51.24" fill="#ccc"/>
  <rect x="17.123" y="21.663" width="786.89" height="418.66" rx="39.15" fill="#f1f2f2"/>
  <rect x="159.783" y="272.493" width="152.73" height="98.28" fill="#ccc"/>
  <rect x="159.783" y="272.493" width="7.84" height="98.28" opacity="0.2"/>
  <ellipse cx="206.983" cy="317.933" rx="26.63" ry="30.22" fill="#f1f2f2"/>
  <path d="M 232.143 317.933 L 206.983 316.483 L 194.383 294.053 C 194.383 294.053 226.813 278.313 232.143 317.933 Z" opacity="0.2"/>
  <rect x="249.563" y="300.743" width="50.41" height="8.22" rx="4.11" opacity="0.2"/>
  <rect x="249.563" y="314.733" width="50.41" height="8.22" rx="4.11" opacity="0.2"/>
  <rect x="249.563" y="327.313" width="50.41" height="8.22" rx="4.11" opacity="0.2"/>
  <rect x="171.643" y="159.953" width="152.73" height="95.83" fill="#ccc"/>
  <rect x="171.643" y="159.953" width="5.63" height="95.83" opacity="0.2"/>
  <ellipse cx="217.283" cy="205.403" rx="26.63" ry="30.22" fill="#f1f2f2"/>
  <rect x="261.413" y="188.203" width="50.41" height="8.22" rx="4.11" opacity="0.2"/>
  <rect x="261.413" y="202.194" width="50.41" height="8.22" rx="4.11" opacity="0.2"/>
  <rect x="261.413" y="214.783" width="50.41" height="8.22" rx="4.11" opacity="0.2"/>
  <path d="M 192.923 206.303 L 240.923 206.303 C 240.923 206.303 240.263 231.003 218.923 233.303 C 218.913 233.333 196.563 235.573 192.923 206.303 Z" opacity="0.2"/>
  <path d="M 217.283 204.623 L 217.283 178.053 C 217.283 178.053 196.283 175.883 192.923 204.533 L 217.283 204.623 Z" opacity="0.2"/>
  <rect x="162.153" y="55.843" width="150.36" height="87.81" fill="#ccc"/>
  <rect x="162.153" y="55.843" width="5.63" height="87.81" opacity="0.2"/>
  <ellipse cx="207.013" cy="102.073" rx="26.63" ry="30.22" fill="#f1f2f2"/>
  <path d="M 230.903 102.053 C 230.903 112.383 225.813 121.363 218.313 125.943 L 217.783 126.253 C 211.127 130.12 202.909 130.12 196.253 126.253 L 195.713 125.943 C 188.223 121.363 183.133 112.383 183.133 102.053 C 183.133 87.053 193.823 74.943 207.013 74.943 C 220.203 74.943 230.903 87.103 230.903 102.053 Z" opacity="0.2"/>
  <rect x="251.923" y="84.093" width="50.41" height="8.22" rx="4.11" opacity="0.2"/>
  <rect x="251.923" y="98.083" width="50.41" height="8.22" rx="4.11" opacity="0.2"/>
  <rect x="251.923" y="110.673" width="50.41" height="8.22" rx="4.11" opacity="0.2"/>
  <path d="M 217.783 126.273 C 211.127 130.14 202.909 130.14 196.253 126.273 L 207.013 102.053 L 217.783 126.273 Z" fill="#f1f2f2"/>
  <rect x="348.323" y="27.133" width="200.88" height="349.29" fill="#ccc"/>
  <rect x="364.313" y="45.863" width="161.15" height="209.92" fill="#f1f2f2"/>
  <rect x="378.553" y="121.743" width="15.74" height="121.26" fill="#ccc"/>
  <rect x="437.463" y="150.823" width="15.74" height="92.17" fill="#ccc"/>
  <rect x="407.483" y="88.203" width="15.74" height="154.79" fill="#ccc"/>
  <rect x="467.453" y="108.413" width="15.74" height="134.58" fill="#ccc"/>
  <rect x="497.213" y="169.713" width="15.74" height="73.29" fill="#ccc"/>
  <rect x="437.463" y="139.063" width="7.87" height="3.66" rx="1.83" fill="#ccc"/>
  <rect x="437.463" y="132.903" width="17.13" height="3.66" rx="1.83" fill="#ccc"/>
  <rect x="407.573" y="70.513" width="7.87" height="3.66" rx="1.83" fill="#ccc"/>
  <rect x="407.573" y="64.353" width="17.13" height="3.66" rx="1.83" fill="#ccc"/>
  <rect x="466.753" y="96.143" width="7.87" height="3.66" rx="1.83" fill="#ccc"/>
  <rect x="466.753" y="89.983" width="17.13" height="3.66" rx="1.83" fill="#ccc"/>
  <rect x="495.733" y="156.993" width="7.87" height="3.66" rx="1.83" fill="#ccc"/>
  <rect x="495.733" y="150.823" width="17.13" height="3.66" rx="1.83" fill="#ccc"/>
  <rect x="568.693" y="71.843" width="151.24" height="283.2" fill="#ccc"/>
  <rect x="715.263" y="72.073" width="4.66" height="282.98" opacity="0.2"/>
  <rect x="579.023" y="87.763" width="127.25" height="99.94" fill="#f1f2f2"/>
  <path d="M 585.013 182.373 L 585.013 137.733 C 585.013 137.733 607.013 137.323 618.223 148.443 C 621.052 151.328 624.494 153.539 628.293 154.913 C 634.577 157.196 641.494 157.007 647.643 154.383 C 647.643 154.383 683.953 138.053 701.943 160.053 L 701.943 182.373 L 585.013 182.373 Z" fill="#ccc"/>
  <rect x="619.8" y="165.77" width="0.78" height="33.91" fill="#ccc" transform="matrix(1, 0, 0, 1, -18.436554, -61.946823)"/>
  <rect x="623.59" y="169.3" width="7.58" height="0.78" fill="#ccc" transform="matrix(1, 0, 0, 1, -18.436554, -61.946823)"/>
  <rect x="623.59" y="172.96" width="7.58" height="0.78" fill="#ccc" transform="matrix(1, 0, 0, 1, -18.436554, -61.946823)"/>
  <rect x="655.2" y="180.93" width="0.78" height="33.91" fill="#ccc" transform="matrix(1, 0, 0, 1, -18.436554, -61.946823)"/>
  <rect x="658.99" y="186.79" width="7.58" height="0.78" fill="#ccc" transform="matrix(1, 0, 0, 1, -18.436554, -61.946823)"/>
  <rect x="658.99" y="190.45" width="7.58" height="0.78" fill="#ccc" transform="matrix(1, 0, 0, 1, -18.436554, -61.946823)"/>
  <rect x="692.32" y="173.35" width="0.78" height="33.91" fill="#ccc" transform="matrix(1, 0, 0, 1, -18.436554, -61.946823)"/>
  <rect x="696.1" y="173.77" width="7.58" height="0.78" fill="#ccc" transform="matrix(1, 0, 0, 1, -18.436554, -61.946823)"/>
  <rect x="696.1" y="177.43" width="7.58" height="0.78" fill="#ccc" transform="matrix(1, 0, 0, 1, -18.436554, -61.946823)"/>
  <ellipse cx="662.213" cy="212.013" rx="12.74" ry="14.66" fill="#f1f2f2"/>
  <path d="M 673.653 212.053 C 673.716 215.963 672.126 219.718 669.273 222.393 C 667.362 224.187 664.844 225.194 662.223 225.213 C 655.903 225.213 650.773 219.313 650.773 212.053 C 650.773 204.793 655.903 198.893 662.223 198.893 C 668.283 198.893 673.223 204.323 673.623 211.193 C 673.643 211.443 673.653 211.733 673.653 212.053 Z" opacity="0.2"/>
  <path d="M 673.653 212.053 C 673.716 215.963 672.126 219.718 669.273 222.393 L 662.223 212.053 L 673.623 211.193 C 673.643 211.443 673.653 211.733 673.653 212.053 Z" fill="#f1f2f2"/>
  <ellipse cx="591.763" cy="211.163" rx="12.74" ry="14.66" fill="#f1f2f2"/>
  <path d="M 603.203 211.163 C 603.267 215.076 601.676 218.835 598.823 221.513 C 596.905 223.302 594.386 224.305 591.763 224.323 C 588.844 224.297 586.065 223.067 584.083 220.923 C 581.628 218.271 580.282 214.778 580.323 211.163 C 580.323 203.893 585.453 198.003 591.763 198.003 C 597.503 198.003 602.263 202.873 603.073 209.223 C 603.073 209.573 603.143 209.943 603.173 210.313 C 603.203 210.683 603.203 210.873 603.203 211.163 Z" opacity="0.2"/>
  <ellipse cx="626.573" cy="211.163" rx="12.74" ry="14.66" fill="#f1f2f2"/>
  <path d="M 638.013 211.163 C 638.077 215.074 636.49 218.831 633.643 221.513 C 631.724 223.3 629.205 224.303 626.583 224.323 C 623.664 224.297 620.885 223.067 618.903 220.923 C 616.444 218.273 615.098 214.779 615.143 211.163 C 615.143 203.893 620.263 198.003 626.583 198.003 C 632.643 198.003 637.583 203.443 637.983 210.313 C 638.008 210.596 638.018 210.88 638.013 211.163 Z" opacity="0.2"/>
  <path d="M 626.563 198.053 L 626.563 211.873 L 618.883 220.973 C 616.424 218.323 615.078 214.829 615.123 211.213 C 615.143 203.893 620.263 198.053 626.563 198.053 Z" fill="#f1f2f2"/>
  <path d="M 603.203 211.163 C 603.267 215.076 601.676 218.835 598.823 221.513 L 591.243 211.163 L 603.073 209.223 C 603.073 209.573 603.143 209.943 603.173 210.313 C 603.203 210.683 603.203 210.873 603.203 211.163 Z" fill="#f1f2f2"/>
  <rect x="576.613" y="288.683" width="68.26" height="54.22" fill="#f1f2f2"/>
  <polygon points="641.623 338.543 579.893 338.543 579.893 296.243 580.673 296.243 580.673 337.763 641.623 337.763 641.623 338.543" fill="#ccc"/>
  <path d="M 583.563 325.053 L 583.563 335.053 L 640.763 335.053 L 640.763 304.233 C 640.763 304.233 631.763 303.643 618.573 315.403 C 616.131 317.605 613.478 319.561 610.653 321.243 C 606.393 323.733 601.043 325.943 598.853 323.033 C 598.853 323.033 593.193 317.543 586.153 320.933 C 584.578 321.704 583.575 323.3 583.563 325.053 Z" fill="#ccc"/>
  <path d="M 583.563 325.053 L 583.563 335.053 L 640.763 335.053 L 640.763 304.233 C 640.763 304.233 631.763 303.643 618.573 315.403 C 616.131 317.605 613.478 319.561 610.653 321.243 C 606.393 323.733 601.043 325.943 598.853 323.033 C 598.853 323.033 593.193 317.543 586.153 320.933 C 584.578 321.704 583.575 323.3 583.563 325.053 Z" opacity="0.2"/>
  <rect x="583.523" y="297.633" width="27.43" height="1.64" rx="0.82" fill="#ccc"/>
  <rect x="583.523" y="301.713" width="27.43" height="1.64" rx="0.82" fill="#ccc"/>
  <rect x="583.523" y="305.013" width="18.67" height="1.64" rx="0.82" fill="#ccc"/>
  <path d="M 17.363 400.003 L 804.263 400.003 C 804.263 400.003 804.263 400.003 804.263 400.003 C 804.263 422.272 786.211 440.323 763.943 440.323 L 57.693 440.323 C 35.421 440.329 17.363 422.276 17.363 400.003 C 17.363 400.003 17.363 400.003 17.363 400.003 Z" fill="#ccc"/>
  <path d="M 17.363 399.923 L 804.263 399.923 C 804.263 399.923 804.263 399.923 804.263 399.923 C 804.263 422.192 786.211 440.243 763.943 440.243 L 57.693 440.243 C 35.421 440.249 17.363 422.196 17.363 399.923 C 17.363 399.923 17.363 399.923 17.363 399.923 Z" opacity="0.2"/>
  <path d="M 86.823 376.563 L 114.683 377.403 L 112.683 406.653 L 73.023 406.653 C 70.502 406.668 68.137 405.437 66.703 403.363 C 55.623 387.253 55.623 343.963 55.623 343.963 C 53.953 297.443 94.563 292.703 94.563 292.703 L 119.733 298.413 C 119.733 298.413 139.233 294.933 155.113 348.143 L 179.563 323.253 L 198.783 343.693 L 193.563 351.103 C 189.296 357.088 184.202 362.438 178.433 366.993 L 142.563 396.813 L 86.823 376.563" fill="#61a5c2"/>
  <path d="M 141.843 388.543 L 132.033 303.843 C 132.033 303.843 146.413 315.653 155.083 348.143 L 179.563 323.253 L 198.783 343.693 C 198.783 343.693 189.903 358.953 177.163 368.053 L 142.563 396.813 L 141.843 388.543 Z" fill="#231f20" opacity="0.2"/>
  <path d="M 102.093 482.713 L 114.683 505.053 C 114.683 505.053 182.683 456.963 197.583 425.653 C 197.583 425.653 203.843 414.493 197.403 406.653 L 161.833 406.653 C 161.833 406.653 139.843 439.323 102.093 482.713 Z" fill="#01497c"/>
  <path d="M 102.093 482.713 L 114.683 505.053 C 114.683 505.053 182.343 457.563 197.223 426.473 C 197.223 426.473 204.153 415.093 197.403 406.623 L 162.403 406.623 C 162.403 406.623 139.843 439.633 102.093 482.713 Z" opacity="0.2"/>
  <path d="M 80.323 498.643 L 107.643 545.053 C 107.643 545.053 112.793 542.823 111.013 530.053 C 110.605 527.277 109.859 524.56 108.793 521.963 C 107.633 519.083 106.393 513.893 109.863 509.523 L 94.983 505.053 L 99.203 489.723 C 99.203 489.723 91.433 490.873 80.323 498.643 Z" fill="#61a5c2"/>
  <path d="M 425.433 215.813 L 435.213 205.273 C 435.213 205.273 436.963 203.603 438.313 204.603 C 438.313 204.603 443.083 211.373 448.533 205.103 C 449.339 206.683 449.989 208.338 450.473 210.043 C 451.338 206.052 450.686 201.881 448.643 198.343 C 446.805 195.13 443.273 193.271 439.583 193.573 L 439.483 193.573 C 437.964 193.757 436.432 193.81 434.903 193.733 C 430.613 193.493 421.783 194.543 414.443 205.423 C 414.443 205.423 381.093 254.203 367.293 292.353 C 365.481 297.374 369.079 302.706 374.413 302.903 L 410.673 304.193 C 410.673 304.193 439.093 258.263 444.843 230.983" fill="#01497c"/>
  <path d="M 506.163 241.393 L 505.283 239.393 L 469.443 254.083 L 452.613 308.323 C 452.553 308.535 452.713 308.745 452.933 308.743 L 455.133 308.743" fill="#e6e7e8"/>
  <path d="M 406.053 304.053 C 406.053 304.053 393.243 310.993 385.693 372.283 L 362.563 515.743 C 362.563 515.743 373.893 518.633 378.993 515.743 C 378.993 515.743 421.193 380.273 425.193 357.623 L 428.743 358.953 C 428.743 358.953 428.303 431.353 431.853 473.103 L 431.853 517.403 L 450.563 517.403 C 450.563 517.403 466.823 370.933 454.363 323.743 L 452.563 294.993 L 406.053 304.053 Z" fill="#01497c"/>
  <path d="M 406.053 304.053 C 406.053 304.053 393.243 310.993 385.693 372.283 L 362.563 515.743 C 362.563 515.743 373.893 518.633 378.993 515.743 C 378.993 515.743 421.193 380.273 425.193 357.623 L 428.743 358.953 C 428.743 358.953 428.303 431.353 431.853 473.103 L 431.853 517.403 L 450.563 517.403 C 450.563 517.403 466.823 370.933 454.363 323.743 L 452.563 294.993 L 406.053 304.053 Z" fill="#231f20" opacity="0.2"/>
  <path d="M 485.903 247.353 C 486.739 243.881 487.366 240.361 487.783 236.813 C 487.839 235.439 488.777 234.258 490.103 233.893 C 491.023 233.673 492.053 233.893 492.913 235.413 C 492.913 235.413 496.333 230.103 498.053 237.973 C 498.439 239.415 498.439 240.932 498.053 242.373 L 493.263 244.373 C 493.263 244.373 493.783 239.113 493.203 237.443 L 490.123 237.363 C 490.123 237.363 490.593 244.753 490.073 245.673 L 485.903 247.353 Z" fill="#f9b499"/>
  <path d="M 684.833 300.553 C 684.833 300.553 669.513 321.733 667.833 387.493 C 667.833 387.493 665.833 482.763 671.503 521.403 L 703.503 521.403 L 698.593 371.403 C 698.542 369.833 699.802 368.533 701.373 368.533 C 702.629 368.528 703.73 369.37 704.053 370.583 L 745.463 522.733 L 777.773 522.733 C 777.773 522.733 737.243 319.973 722.363 300.733 L 684.833 300.553 Z" fill="#01497c"/>
  <path d="M 664.703 538.403 L 678.393 527.293 L 692.833 525.513 C 692.833 525.513 695.273 533.513 694.163 539.723 L 665.163 539.723 C 664.594 539.724 664.237 539.107 664.522 538.614 C 664.568 538.533 664.63 538.462 664.703 538.403 Z" fill="#61a5c2"/>
  <g opacity="0.2" transform="matrix(1, 0, 0, 1, -18.436554, -61.946823)">
    <path d="M696.44,567.48,694.22,436c-1.32-41.37,13.68-73.33,13.83-73.65l.7.34C708.6,363,693.68,394.82,695,436l2.22,131.48Z"/>
  </g>
  <g opacity="0.2" transform="matrix(1, 0, 0, 1, -18.436554, -61.946823)">
    <rect x="688.24" y="567.08" width="33.17" height="0.78"/>
  </g>
  <g opacity="0.2" transform="matrix(1, 0, 0, 1, -18.436554, -61.946823)">
    <rect x="755.74" y="360.3" width="0.78" height="205.99" transform="translate(-81.46 172.07) rotate(-12.32)"/>
  </g>
  <g opacity="0.2" transform="matrix(1, 0, 0, 1, -18.436554, -61.946823)">
    <rect x="758.25" y="563.53" width="33.73" height="0.78"/>
  </g>
  <path d="M 740.493 290.783 C 740.493 290.783 732.563 306.913 729.163 310.053 C 729.163 310.053 722.163 319.593 724.013 327.833 C 724.013 327.833 726.583 327.833 728.393 321.133 L 729.163 340.213 C 729.163 340.213 732.253 339.213 731.593 330.413 L 734.023 340.543 C 734.099 340.85 734.478 340.959 734.706 340.74 C 734.748 340.699 734.782 340.649 734.803 340.593 C 735.788 337.996 736.322 335.25 736.383 332.473 C 736.383 332.473 737.073 336.113 739.023 337.853 C 739.386 338.164 739.948 337.966 740.036 337.497 C 740.054 337.403 740.049 337.306 740.023 337.213 C 738.973 333.943 736.703 325.773 737.693 319.333 C 737.693 319.333 749.113 307.213 751.973 299.643 L 740.493 290.783 Z" fill="#f9b499"/>
  <path d="M 633.273 267.893 L 651.963 292.553 L 659.513 278.553 L 642.563 262.283 L 641.263 261.033 C 640.618 258.421 638.813 256.248 636.363 255.133 C 636.363 255.133 628.113 244.013 628.633 248.653 L 632.233 255.133 C 632.233 255.133 621.683 264.193 633.273 267.893 Z" fill="#f9b499"/>
  <circle cx="689.453" cy="224.053" r="4.4" fill="#61a5c2"/>
  <ellipse cx="731.93" cy="281.6" rx="4.74" ry="3.7" transform="matrix(0.5, -0.866025, 0.866025, 0.5, 103.6533, 712.723278)" fill="#f9b499"/>
  <polygon points="114.403 312.763 115.523 299.944 119.703 310.533 122.483 297.444 115.523 288.523 97.133 284.063 94.533 294.373 114.403 312.763" fill="#61a5c2"/>
  <polygon points="114.403 312.763 115.523 299.944 119.703 310.533 122.483 297.444 115.523 288.523 97.133 284.063 94.533 294.373 114.403 312.763" fill="#231f20" opacity="0.2"/>
  <path d="M 122.203 248.123 C 126.083 244.783 127.283 242.783 127.643 241.773 C 127.856 241.249 127.755 240.65 127.383 240.223 C 125.983 238.753 122.203 241.023 122.203 241.023 C 127.043 234.303 123.933 232.833 121.093 232.633 C 119.538 232.542 117.982 232.806 116.543 233.403 L 94.543 242.273 C 89.443 245.343 94.543 249.273 94.543 249.273 L 92.273 267.923 C 92.273 267.923 91.273 276.573 99.093 272.923 L 122.203 248.123 Z" fill="#01497c"/>
  <polyline points="114.243 379.633 151.843 388.323 147.663 400.053 113.173 400.053" fill="#f9b499"/>
  <path d="M 88.673 313.053 L 134.563 384.213 C 127.363 382.783 119.863 381.103 112.123 379.143 C 102.453 376.693 93.323 374.043 84.773 371.283 C 86.183 364.513 87.383 357.053 88.673 313.053 Z" fill="#231f20" opacity="0.2"/>
  <path d="M 70.723 413.383 C 71.489 416.625 72.687 419.75 74.283 422.673 C 76.333 426.513 79.255 429.818 82.813 432.323 C 90.45 437.602 99.53 440.396 108.813 440.323 L 145.663 440.323 C 145.663 440.323 149.443 440.233 149.663 445.323 L 152.333 520.603 L 176.333 520.603 L 187.563 423.803 C 187.563 423.803 188.563 410.883 181.923 406.663 L 83.323 406.663 C 81.757 406.664 80.192 406.583 78.633 406.423 L 68.763 405.423 L 70.723 413.383 Z" fill="#01497c"/>
  <polygon points="113.173 400.053 147.663 400.053 163.163 355.313 236.373 356.833 219.853 406.663 112.733 406.653 113.173 400.053" fill="#d1d3d4"/>
  <polygon points="113.173 400.053 147.663 400.053 144.693 406.663 112.733 406.653 113.173 400.053" opacity="0.2"/>
  <circle cx="192.273" cy="381.953" r="6.66" opacity="0.2"/>
  <path d="M 181.023 324.733 C 181.023 324.733 191.483 316.133 197.963 305.133 L 210.663 286.513 C 210.663 286.513 214.323 283.413 213.483 288.203 L 208.683 299.773 C 208.683 299.773 212.263 299.133 211.933 302.463 C 211.933 302.463 215.603 302.463 215.433 305.623 C 215.433 305.623 219.593 305.793 218.263 308.623 L 197.333 342.113 C 197.333 342.113 184.153 328.053 181.023 324.733 Z" fill="#f9b499"/>
  <path d="M 423.563 235.413 L 402.343 251.053 C 395.513 255.883 397.013 267.873 397.013 267.873 C 397.013 267.873 402.683 309.683 417.503 323.173 L 429.163 297.173 C 429.163 297.173 445.823 287.343 454.313 279.263 C 454.313 279.263 459.643 270.353 465.313 267.853 L 465.983 266.193 C 465.983 266.193 443.983 246.873 437.163 242.193 L 423.563 235.413 Z" fill="#61a5c2"/>
  <ellipse cx="443.87" cy="280.52" rx="3.37" ry="5.36" transform="matrix(0.887735, -0.460355, 0.460355, 0.887735, -97.736501, 173.853184)" fill="#f9b499"/>
  <path d="M 423.563 223.583 L 423.563 236.583 C 423.561 237.441 423.886 238.268 424.473 238.893 C 426.693 241.273 432.553 247.093 437.053 247.323 C 437.761 247.324 438.342 246.761 438.363 246.053 L 438.993 232.053 L 428.663 220.423 L 423.563 221.593 L 423.563 223.583 Z" fill="#f9b499"/>
  <ellipse cx="456.75" cy="277.76" rx="17.63" ry="12.87" transform="matrix(0.078285, -0.996931, 0.996931, 0.078285, 125.623383, 649.393241)" fill="#f9b499"/>
  <path d="M 426.633 215.813 C 426.633 215.813 435.883 203.353 438.273 205.393 C 438.783 206.393 443.903 212.473 448.513 205.183 L 450.733 209.323 C 450.733 209.323 451.733 206.423 447.663 197.723 C 447.663 197.723 446.073 192.083 438.413 194.303 C 438.413 194.303 425.643 193.453 422.233 198.063 L 403.973 221.953 L 417.113 219.953 C 417.113 219.953 419.343 214.553 422.413 213.523 C 422.413 213.473 425.103 211.543 426.633 215.813 Z" fill="#01497c"/>
  <path d="M 452.433 278.533 C 450.673 268.413 438.993 243.433 438.993 243.433 C 444.173 247.203 465.513 265.833 465.513 265.833 L 464.663 268.213 C 464.663 268.213 460.173 269.953 454.313 279.303 L 452.563 280.713 C 452.59 279.984 452.546 279.254 452.433 278.533 Z" opacity="0.2"/>
  <path d="M 429.203 297.183 C 429.203 297.183 414.563 269.053 411.913 256.803 L 442.913 288.153 C 440.733 289.753 438.463 291.423 435.973 293.043 C 433.633 294.543 431.383 295.913 429.203 297.183 Z" opacity="0.2"/>
  <ellipse cx="495.243" cy="321.633" rx="29.45" ry="33.42" fill="#f1f2f2"/>
  <path d="M 520.243 321.493 C 520.247 324.752 519.755 327.993 518.783 331.103 L 518.693 331.383 C 517.151 336.247 514.308 340.597 510.473 343.963 C 506.491 347.476 501.373 349.429 496.063 349.463 C 489.391 349.372 483.099 346.338 478.873 341.173 C 474.276 335.654 471.794 328.677 471.873 321.493 C 471.873 306.053 482.703 293.493 496.063 293.493 C 509.423 293.493 520.243 306.053 520.243 321.493 Z" opacity="0.2"/>
  <path d="M 518.783 331.103 L 518.693 331.383 C 517.151 336.247 514.308 340.597 510.473 343.963 C 506.491 347.476 501.373 349.429 496.063 349.463 C 489.391 349.372 483.099 346.338 478.873 341.173 L 495.243 321.623 L 518.783 331.103 Z" fill="#f1f2f2"/>
  <path d="M 506.163 241.393 L 505.283 239.393 L 469.443 254.083 L 452.613 308.323 C 452.553 308.535 452.713 308.745 452.933 308.743 L 455.133 308.743" opacity="0.2"/>
  <path d="M 454.363 308.053 L 470.803 255.403 L 505.243 240.983 C 505.744 240.784 506.273 241.201 506.195 241.735 C 506.19 241.768 506.183 241.801 506.173 241.833 L 490.863 291.483 C 490.816 291.631 490.712 291.753 490.573 291.823 L 455.133 308.723 C 454.742 308.903 454.302 308.592 454.342 308.162 C 454.346 308.126 454.353 308.089 454.363 308.053 Z" fill="#e6e7e8"/>
  <path d="M 424.713 321.673 C 435.184 313.68 445.215 305.128 454.763 296.053 C 456.925 293.976 459.268 292.095 461.763 290.433 C 464.863 288.353 469.203 285.123 471.833 281.823 C 472.274 281.269 471.949 280.445 471.248 280.341 C 471.154 280.327 471.058 280.328 470.963 280.343 C 470.053 280.503 468.533 281.273 465.963 283.433 L 473.213 276.863 C 473.753 276.373 473.668 275.5 473.043 275.123 C 472.64 274.883 472.129 274.927 471.773 275.233 L 465.463 280.633 L 471.803 274.353 C 472.498 273.669 472.326 272.507 471.463 272.053 L 464.293 278.463 L 471.433 271.833 C 472.027 271.26 472.027 270.307 471.433 269.733 C 470.904 269.205 470.059 269.166 469.483 269.643 L 461.263 276.383 C 461.263 276.383 463.263 274.013 462.343 269.703 C 462.343 269.703 458.763 272.213 454.263 279.293 C 446.329 285.87 437.923 291.856 429.113 297.203 L 417.453 323.203 C 417.453 323.203 418.223 324.203 420.883 323.543 C 422.277 323.197 423.582 322.559 424.713 321.673 Z" fill="#f9b499"/>
  <path d="M 659.563 278.553 L 652.013 292.553 C 652.013 292.553 667.783 317.643 675.333 311.203 C 675.333 311.203 678.663 310.093 681.333 297.203 L 682.883 300.533 L 722.413 300.753 C 722.413 300.753 731.073 294.093 729.523 272.753 L 744.843 281.633 L 739.513 292.493 L 756.843 304.293 L 765.943 283.193 C 765.943 283.193 767.723 279.193 763.053 274.533 C 763.053 274.533 736.963 241.733 709.143 237.363 L 690.753 242.093 C 690.753 242.093 675.553 238.773 673.753 253.213 L 665.753 284.303 L 659.563 278.553 Z" fill="#61a5c2"/>
  <g opacity="0.2" transform="matrix(1, 0, 0, 1, -18.436554, -61.946823)">
    <path d="M784.26,345.55c-37.22-7.31-35.35-37.32-35.33-37.62l.77.06a34,34,0,0,0,3.5,15.69c3.7,7.56,12.11,17.36,31.21,21.11Z"/>
  </g>
  <g opacity="0.2" transform="matrix(1, 0, 0, 1, -18.436554, -61.946823)">
    <path d="M777.88,359.89c-13-9.41-5.94-33.2-5.86-33.44l.74.23c-.07.23-6.93,23.5,5.58,32.58Z"/>
  </g>
  <g opacity="0.2" transform="matrix(1, 0, 0, 1, -18.436554, -61.946823)">
    <path d="M717.3,355.23a4.93,4.93,0,0,1-.75-.06,5.29,5.29,0,0,1-3.6-2.36c-2.94-4.51-2.37-10.11.06-15.9-2.68-2.92-6.48-6.77-11.81-11.67l.53-.57c5.19,4.77,8.94,8.56,11.62,11.46,6.89-15.41,26.34-31.91,27.48-32.86l.5.59c-.28.24-20.54,17.41-27.36,32.94,1.39,1.53,2.47,2.79,3.28,3.79a23.71,23.71,0,0,1,3.29,5.24c1.75,3.93,1.62,6.74-.37,8.38A4.5,4.5,0,0,1,717.3,355.23Zm-3.66-17.64c-2.24,5.45-2.74,10.65,0,14.8a4.49,4.49,0,0,0,3.07,2,3.77,3.77,0,0,0,3-.79c1.7-1.39,1.75-3.9.16-7.46a22.53,22.53,0,0,0-3.18-5.07C715.89,340.14,714.9,339,713.64,337.59Z"/>
  </g>
  <g opacity="0.2" transform="matrix(1, 0, 0, 1, -18.436554, -61.946823)">
    <path d="M677.05,363.75l-.41-.66c.17-.11,17.22-11.21,22-58.16l.77.08C694.59,352.41,677.76,363.31,677.05,363.75Z"/>
  </g>
  <g opacity="0.2" transform="matrix(1, 0, 0, 1, -18.436554, -61.946823)">
    <path d="M695.73,370.49c-8.72-21.76-24.39-16.9-24.55-16.84l-.24-.74c.16-.06,16.52-5.14,25.51,17.29Z"/>
  </g>
  <path d="M 692.383 224.813 L 691.283 236.903 C 691.063 239.353 690.783 241.793 690.403 244.213 C 689.663 248.933 688.913 258.843 696.823 253.683 C 696.823 253.683 702.653 248.633 707.953 238.683 C 708.667 237.337 709.064 235.846 709.113 234.323 L 709.603 219.623 L 692.383 224.813 Z" fill="#f9b499"/>
  <path d="M 122.263 248.913 C 124.806 253.498 126.093 258.672 125.993 263.913 C 125.993 274.273 121.503 282.913 115.523 285.023 L 115.523 299.943 L 97.133 284.053 L 99.133 272.913 L 98.683 272.793 C 98.412 272.897 98.124 272.952 97.833 272.953 C 96.093 272.953 94.673 271.153 94.673 268.953 C 94.673 266.753 96.093 264.953 97.833 264.953 C 98.393 264.961 98.936 265.147 99.383 265.483 L 99.493 265.433 C 99.493 264.943 99.493 264.433 99.493 263.953 C 99.493 252.013 105.493 242.333 112.793 242.333 C 116.323 242.333 119.513 244.573 121.893 248.203 L 122.263 248.913 Z" fill="#f9b499"/>
  <path d="M 99.333 265.443 C 99.333 265.443 105.133 243.443 121.943 248.443 L 123.073 242.943 L 118.893 238.333 L 107.323 240.263 L 99.323 247.013 L 99.333 265.443 Z" fill="#01497c"/>
  <path d="M 438.933 233.333 L 438.843 235.413 C 438.843 235.413 431.283 235.243 429.393 229.133 C 429.393 229.133 431.913 233.493 438.933 233.333 Z" fill="#f7a48b"/>
  <path d="M 692.023 228.763 L 692.303 225.693 L 702.823 226.853 C 702.823 226.853 699.663 230.393 692.023 228.763 Z" fill="#f7a48b"/>
  <ellipse cx="718.65" cy="274.38" rx="16.1" ry="12.82" transform="matrix(0.445417, -0.895323, 0.895323, 0.445417, 134.463314, 733.653253)" fill="#f9b499"/>
  <path d="M 702.833 201.273 C 700.729 202.292 698.431 202.848 696.093 202.903 C 692.384 202.793 690.186 198.71 692.135 195.553 C 692.186 195.471 692.238 195.392 692.293 195.313 C 693.963 192.913 696.563 190.543 700.293 190.873 C 702.641 191.128 705.004 191.209 707.363 191.113 C 711.863 190.853 718.443 190.863 720.843 192.833 C 720.843 192.833 723.373 179.733 730.843 182.393 C 738.313 185.053 738.343 195.053 738.343 195.053 C 738.343 195.053 738.343 202.313 726.343 202.903 C 726.343 202.903 725.913 223.733 713.473 224.053 L 713.073 214.453 C 713.073 214.453 706.173 217.053 702.833 201.273 Z" fill="#01497c"/>
  <circle cx="709.903" cy="225.694" r="4.72" fill="#61a5c2"/>
  <path d="M 115.563 285.053 L 115.563 288.553 C 112.099 287.437 109.026 285.356 106.703 282.553 C 106.703 282.553 113.293 286.153 115.563 285.053 Z" fill="#f7a48b"/>
</svg>