<?xml version="1.0" encoding="utf-8"?>
<svg id="a" width="865.76" height="682.89" viewBox="0 0 752.191 638.642" xmlns="http://www.w3.org/2000/svg">
  <g>
    <g transform="matrix(1, 0, 0, 1, -38.348038, 89.970383)">
      <rect x="232.51" y="68.03" width="423.6" height="329.61" fill="#fff"/>
      <path d="M656.61,398.14H232.01V67.53h424.6V398.14Zm-423.6-1h422.6V68.53H233.01V397.14Z" fill="#002346"/>
    </g>
    <path d="M 246.672 460.431 C 246.392 460.431 246.172 460.211 246.172 459.931 L 246.172 258.331 C 246.172 258.051 246.392 257.831 246.672 257.831 C 246.952 257.831 247.172 258.051 247.172 258.331 L 247.172 459.931 C 247.172 460.211 246.952 460.431 246.672 460.431 Z" fill="#002346"/>
    <path d="M 311.112 460.281 C 310.832 460.281 310.612 460.061 310.612 459.781 L 310.612 299.241 C 310.612 298.961 310.832 298.741 311.112 298.741 C 311.392 298.741 311.612 298.961 311.612 299.241 L 311.612 459.781 C 311.612 460.061 311.392 460.281 311.112 460.281 Z" fill="#002346"/>
    <path d="M 373.392 460.281 C 373.112 460.281 372.892 460.061 372.892 459.781 L 372.892 255.321 C 372.892 255.041 373.112 254.821 373.392 254.821 C 373.672 254.821 373.892 255.041 373.892 255.321 L 373.892 459.781 C 373.892 460.061 373.672 460.281 373.392 460.281 Z" fill="#002346"/>
    <path d="M 428.432 370.031 C 428.152 370.031 427.932 369.811 427.932 369.531 L 427.932 225.181 C 427.932 224.901 428.152 224.681 428.432 224.681 C 428.712 224.681 428.932 224.901 428.932 225.181 L 428.932 369.531 C 428.932 369.811 428.712 370.031 428.432 370.031 Z" fill="#002346"/>
    <path d="M 494.812 447.371 C 494.532 447.371 494.312 447.151 494.312 446.871 L 494.312 302.521 C 494.312 302.241 494.532 302.021 494.812 302.021 C 495.092 302.021 495.312 302.241 495.312 302.521 L 495.312 446.871 C 495.312 447.151 495.092 447.371 494.812 447.371 Z" fill="#002346"/>
    <circle cx="494.812" cy="301.021" r="1.5" fill="#002346"/>
    <path d="M 566.812 399.371 C 566.532 399.371 566.312 399.151 566.312 398.871 L 566.312 254.521 C 566.312 254.241 566.532 254.021 566.812 254.021 C 567.092 254.021 567.312 254.241 567.312 254.521 L 567.312 398.871 C 567.312 399.151 567.092 399.371 566.812 399.371 Z" fill="#002346"/>
    <circle cx="566.812" cy="253.021" r="1.5" fill="#002346"/>
    <path d="M 312.612 299.881 C 312.612 300.711 311.942 301.381 311.112 301.381 C 310.282 301.381 309.612 300.711 309.612 299.881 C 309.612 299.051 310.282 298.381 311.112 298.381 C 311.942 298.381 312.612 299.051 312.612 299.881 Z" fill="#002346"/>
    <circle cx="373.392" cy="255.321" r="1.5" fill="#002346"/>
    <circle cx="428.432" cy="223.681" r="1.5" fill="#002346"/>
    <circle cx="566.662" cy="255.321" r="1.5" fill="#263238"/>
    <path d="M 247.652 256.831 C 247.652 257.661 246.972 258.331 246.142 258.321 C 245.312 258.321 244.642 257.641 244.652 256.811 C 244.652 255.991 245.332 255.321 246.152 255.321 C 246.972 255.321 247.642 255.991 247.642 256.811 L 247.642 256.831 L 247.652 256.831 Z" fill="#002346"/>
    <path d="M 318.492 379.661 C 302.602 379.661 290.182 369.561 285.482 365.121 C 282.052 361.871 278.422 359.061 274.712 356.771 C 261.852 348.821 250.092 346.281 239.772 349.231 C 225.962 353.181 219.562 365.791 219.502 365.911 C 219.382 366.161 219.082 366.261 218.832 366.141 C 218.582 366.021 218.482 365.721 218.602 365.471 C 218.662 365.341 225.252 352.341 239.492 348.271 C 250.092 345.241 262.122 347.811 275.232 355.921 C 279.002 358.251 282.672 361.101 286.162 364.401 C 290.912 368.901 303.702 379.291 319.952 378.641 C 332.052 378.151 343.752 371.721 354.722 359.521 C 360.492 353.111 365.422 345.511 369.372 336.951 C 377.392 319.581 399.822 280.321 434.752 290.881 C 435.352 291.011 450.772 294.751 476.432 339.681 C 479.642 345.301 482.802 351.551 486.392 359.341 C 489.912 367.001 501.192 383.741 529.742 373.911 C 529.922 373.871 542.632 370.841 559.542 343.841 C 559.872 343.291 567.882 330.251 579.532 327.641 C 579.802 327.591 580.072 327.751 580.132 328.021 C 580.192 328.291 580.022 328.561 579.752 328.621 C 568.512 331.131 560.472 344.241 560.392 344.371 C 543.212 371.811 530.542 374.771 530.012 374.881 C 500.742 384.961 489.122 367.671 485.482 359.771 C 481.912 352.001 478.752 345.781 475.562 340.181 C 450.122 295.631 434.652 291.881 434.502 291.851 C 400.282 281.511 378.182 320.241 370.272 337.381 C 366.282 346.031 361.292 353.711 355.462 360.191 C 344.302 372.601 332.362 379.151 319.982 379.641 C 319.482 379.661 318.972 379.671 318.482 379.671 L 318.492 379.661 Z" fill="#2a6f97"/>
    <g transform="matrix(1, 0, 0, 1, -38.348038, 89.970383)">
      <rect x="283.03" y="105.02" width="73.86" height="4.11" fill="#fff"/>
      <path d="M357.39,109.63h-74.86v-5.11h74.86v5.11Zm-73.86-1h72.86v-3.11h-72.86v3.11Z" fill="#002346"/>
    </g>
    <g transform="matrix(1, 0, 0, 1, -38.348038, 89.970383)">
      <rect x="283.03" y="114.64" width="36.49" height="4.11" fill="#fff"/>
      <path d="M320.02,119.25h-37.49v-5.11h37.49v5.11Zm-36.49-1h35.49v-3.11h-35.49v3.11Z" fill="#002346"/>
    </g>
    <g transform="matrix(1, 0, 0, 1, -38.348038, 89.970383)">
      <path d="M238.21,41.14h411.69c3.43,0,6.21,2.78,6.21,6.21h0v20.65H232v-20.64c0-3.43,2.77-6.21,6.2-6.22,0,0,0,0,.01,0Z" fill="#2a6f97"/>
      <path d="M656.61,68.5H231.5v-21.14c0-1.79,.69-3.48,1.96-4.75,1.27-1.27,2.95-1.97,4.74-1.97h411.7c3.7,0,6.71,3.01,6.71,6.71v21.15Zm-424.11-1h423.11v-20.14c0-3.16-2.56-5.72-5.71-5.72H238.2c-1.52,0-2.96,.6-4.03,1.68s-1.67,2.51-1.67,4.04v20.14Z" fill="#002346"/>
    </g>
    <g transform="matrix(1, 0, 0, 1, -38.348038, 89.970383)">
      <path d="M251.63,55.1c0,1.99-1.6,3.61-3.59,3.62-1.99,0-3.61-1.6-3.62-3.59,0-1.99,1.6-3.61,3.59-3.62,0,0,.02,0,.02,0,1.99,0,3.59,1.61,3.59,3.59Z" fill="#fff"/>
      <path d="M248.02,59.22c-2.26,0-4.1-1.83-4.11-4.09,0-1.1,.42-2.13,1.19-2.91s1.8-1.21,2.9-1.21c2.28,0,4.12,1.84,4.12,4.09h0c0,1.1-.42,2.13-1.19,2.91s-1.8,1.21-2.9,1.21h-.01Zm.01-7.21c-.85,0-1.63,.33-2.22,.92-.58,.59-.91,1.37-.9,2.2,0,1.71,1.4,3.1,3.11,3.1h.01c.83,0,1.61-.33,2.19-.92,.58-.59,.91-1.37,.9-2.2h0c0-1.71-1.39-3.1-3.09-3.1Z" fill="#002346"/>
    </g>
    <g transform="matrix(1, 0, 0, 1, -38.348038, 89.970383)">
      <path d="M267.32,55.1c0,1.99-1.6,3.61-3.59,3.62-1.99,0-3.61-1.6-3.62-3.59,0-1.99,1.6-3.61,3.59-3.62,0,0,0,0,.01,0,1.99,0,3.6,1.6,3.61,3.58,0,0,0,0,0,.01Z" fill="#fff"/>
      <path d="M263.72,59.22c-1.09,0-2.12-.42-2.89-1.19-.78-.77-1.21-1.8-1.21-2.9,0-1.1,.42-2.13,1.19-2.91s1.8-1.21,2.9-1.21h.01c1.1,0,2.12,.42,2.9,1.19,.78,.77,1.21,1.8,1.21,2.89h0c0,1.11-.42,2.14-1.19,2.92s-1.8,1.21-2.9,1.21h-.01Zm.01-7.21h-.01c-.84,0-1.62,.33-2.21,.92-.58,.59-.91,1.37-.9,2.2s.33,1.61,.92,2.19c.59,.58,1.36,.9,2.19,.9h.01c.83,0,1.61-.33,2.19-.92,.58-.59,.91-1.37,.9-2.2h0c0-.84-.33-1.62-.91-2.2-.58-.58-1.36-.9-2.18-.9Z" fill="#002346"/>
    </g>
    <g transform="matrix(1, 0, 0, 1, -38.348038, 89.970383)">
      <path d="M283.02,55.1c0,1.99-1.6,3.61-3.59,3.62-1.99,0-3.61-1.6-3.62-3.59,0-1.99,1.6-3.61,3.59-3.62,0,0,.02,0,.02,0,1.99,0,3.59,1.61,3.59,3.59h0Z" fill="#fff"/>
      <path d="M279.42,59.22c-2.26,0-4.1-1.83-4.11-4.09,0-1.1,.42-2.13,1.19-2.91s1.8-1.21,2.9-1.21c2.28,0,4.12,1.84,4.12,4.09h0c0,1.1-.42,2.13-1.19,2.91s-1.8,1.21-2.9,1.21h-.01Zm.01-7.21c-.85,0-1.63,.33-2.22,.92-.58,.59-.91,1.37-.9,2.2,0,1.71,1.4,3.1,3.11,3.1h.01c.83,0,1.61-.33,2.19-.92,.58-.59,.91-1.37,.9-2.2h0c0-1.71-1.39-3.1-3.09-3.1Z" fill="#002346"/>
    </g>
    <g transform="matrix(1, 0, 0, 1, -38.348038, 89.970383)">
      <rect x="149.13" y="130.17" width="171.48" height="71.21" rx="3.61" ry="3.61" fill="#fff"/>
      <path d="M317,201.88H152.74c-2.27,0-4.11-1.84-4.11-4.11v-63.99c0-2.27,1.84-4.11,4.11-4.11h164.26c2.27,0,4.11,1.84,4.11,4.11v63.99c0,2.27-1.84,4.11-4.11,4.11Zm-164.26-71.21c-1.71,0-3.11,1.39-3.11,3.11v63.99c0,1.71,1.4,3.11,3.11,3.11h164.26c1.71,0,3.11-1.4,3.11-3.11v-63.99c0-1.71-1.4-3.11-3.11-3.11H152.74Z" fill="#002346"/>
    </g>
    <g transform="matrix(1, 0, 0, 1, -38.348038, 89.970383)">
      <path d="M184.76,152.67c0,4.42-3.58,8-8,8s-8-3.58-8-8,3.58-8,8-8,8,3.58,8,8Z" fill="#2a6f97"/>
      <path d="M176.76,161.17c-4.69,0-8.5-3.81-8.5-8.5s3.81-8.5,8.5-8.5,8.5,3.81,8.5,8.5-3.81,8.5-8.5,8.5Zm0-16c-4.14,0-7.5,3.36-7.5,7.5s3.36,7.5,7.5,7.5,7.5-3.36,7.5-7.5-3.36-7.5-7.5-7.5Z" fill="#002346"/>
    </g>
    <g transform="matrix(1, 0, 0, 1, -38.348038, 89.970383)">
      <rect x="192.75" y="147.15" width="55.71" height="3.09" fill="#2a6f97"/>
      <path d="M248.96,150.74h-56.71v-4.09h56.71v4.09Zm-55.71-1h54.71v-2.09h-54.71v2.09Z" fill="#002346"/>
    </g>
    <g transform="matrix(1, 0, 0, 1, -38.348038, 89.970383)">
      <rect x="192.75" y="154.18" width="108.35" height="3.09" fill="#fff"/>
      <path d="M301.6,157.77h-109.35v-4.09h109.35v4.09Zm-108.35-1h107.35v-2.09h-107.35v2.09Z" fill="#002346"/>
    </g>
    <g transform="matrix(1, 0, 0, 1, -38.348038, 89.970383)">
      <path d="M184.76,177.25c0,4.42-3.58,8-8,8s-8-3.58-8-8,3.58-8,8-8,8,3.58,8,8Z" fill="#2a6f97"/>
      <path d="M176.76,185.75c-4.69,0-8.5-3.81-8.5-8.5s3.81-8.5,8.5-8.5,8.5,3.81,8.5,8.5-3.81,8.5-8.5,8.5Zm0-16c-4.14,0-7.5,3.36-7.5,7.5s3.36,7.5,7.5,7.5,7.5-3.36,7.5-7.5-3.36-7.5-7.5-7.5Z" fill="#002346"/>
    </g>
    <g transform="matrix(1, 0, 0, 1, -38.348038, 89.970383)">
      <rect x="192.75" y="171.73" width="28.45" height="3.09" fill="#2a6f97"/>
      <path d="M221.7,175.32h-29.45v-4.09h29.45v4.09Zm-28.45-1h27.45v-2.09h-27.45v2.09Z" fill="#002346"/>
    </g>
    <g transform="matrix(1, 0, 0, 1, -38.348038, 89.970383)">
      <rect x="192.75" y="178.75" width="108.35" height="3.09" fill="#fff"/>
      <path d="M301.6,182.34h-109.35v-4.09h109.35v4.09Zm-108.35-1h107.35v-2.09h-107.35v2.09Z" fill="#002346"/>
    </g>
    <g transform="matrix(1, 0, 0, 1, -38.348038, 89.970383)">
      <rect x="108.78" y="346.08" width="221.25" height="94.05" rx="5.46" ry="5.46" fill="#a9d6e5"/>
      <path d="M324.57,440.63H114.24c-3.29,0-5.96-2.67-5.96-5.96v-83.13c0-3.29,2.67-5.96,5.96-5.96h210.33c3.29,0,5.96,2.67,5.96,5.96v83.13c0,3.29-2.67,5.96-5.96,5.96Zm-210.33-94.05c-2.73,0-4.96,2.22-4.96,4.96v83.13c0,2.74,2.23,4.96,4.96,4.96h210.33c2.73,0,4.96-2.22,4.96-4.96v-83.13c0-2.74-2.23-4.96-4.96-4.96H114.24Z" fill="#002346"/>
    </g>
    <g transform="matrix(1, 0, 0, 1, -38.348038, 89.970383)">
      <path d="M135.09,399.06l14.15-3.06,.02-4.48-.13-19.07c-5.82,.1-11.4,2.28-15.75,6.15-5.65,4.91-8.49,12.31-7.58,19.74,.1,.91,.25,1.84,.44,2.76l8.85-2.04Z" fill="#2a6f97"/>
      <path d="M125.85,401.7l-.1-.5c-.2-.95-.35-1.9-.45-2.81-.93-7.6,1.97-15.14,7.75-20.17,4.43-3.94,10.14-6.17,16.07-6.27h.51s.13,19.57,.13,19.57l-.02,4.89-14.54,3.14-9.35,2.16Zm22.78-28.74c-5.51,.21-10.79,2.34-14.92,6.01-5.54,4.81-8.31,12.03-7.42,19.31,.08,.72,.19,1.47,.33,2.22l8.36-1.93,13.76-2.97,.02-4.08-.13-18.55Z" fill="#002346"/>
    </g>
    <g transform="matrix(1, 0, 0, 1, -38.348038, 89.970383)">
      <path d="M173,385.65c-3.41-7.34-10.49-12.3-18.55-13l-.73-.07h-2l.12,19.07v4.48l23,4.94h0c.36-1.63,.53-3.29,.51-4.95,0-3.62-.81-7.2-2.35-10.47Z" fill="#e6e7e8"/>
      <path d="M175.22,401.66l-23.88-5.13v-4.88l-.12-19.57h2.5l.78,.07c8.21,.72,15.48,5.81,18.96,13.29,1.57,3.32,2.39,7.01,2.4,10.68,.02,1.69-.15,3.4-.52,5.06l-.11,.49Zm-22.88-5.94l22.11,4.75c.28-1.43,.41-2.89,.4-4.35,0-3.53-.8-7.08-2.3-10.26h0c-3.33-7.16-10.28-12.03-18.14-12.71l-.73-.07h-1.45s.12,22.65,.12,22.65Z" fill="#002346"/>
    </g>
    <g transform="matrix(1, 0, 0, 1, -38.348038, 89.970383)">
      <path d="M150.09,398.33l-22.61,5.18c2.86,12.69,15.47,20.66,28.16,17.8,8.93-2.01,15.88-9.01,17.84-17.95l-22.39-5.3-1,.27Z" fill="#fff"/>
      <path d="M150.41,422.4c-4.5,0-8.91-1.27-12.81-3.73-5.43-3.43-9.2-8.78-10.62-15.05l-.11-.49,24.2-5.59,22.99,5.44-.1,.48c-1.99,9.09-9.14,16.29-18.21,18.33-1.77,.4-3.56,.6-5.34,.6Zm-22.33-18.51c1.44,5.8,4.99,10.73,10.06,13.94,5.21,3.29,11.38,4.36,17.39,3,8.54-1.93,15.3-8.61,17.35-17.09l-21.78-5.16-.9,.24-22.12,5.07Z" fill="#002346"/>
    </g>
    <g transform="matrix(1, 0, 0, 1, -38.348038, 89.970383)">
      <rect x="190.78" y="378.15" width="116.77" height="5.29" fill="#fff"/>
      <path d="M308.05,383.94h-117.77v-6.29h117.77v6.29Zm-116.77-1h115.77v-4.29h-115.77v4.29Z" fill="#002346"/>
    </g>
    <g transform="matrix(1, 0, 0, 1, -38.348038, 89.970383)">
      <rect x="190.78" y="392.1" width="116.77" height="5.29" fill="#fff"/>
      <path d="M308.05,397.89h-117.77v-6.29h117.77v6.29Zm-116.77-1h115.77v-4.29h-115.77v4.29Z" fill="#002346"/>
    </g>
    <g transform="matrix(1, 0, 0, 1, -38.348038, 89.970383)">
      <rect x="190.78" y="407.52" width="63.12" height="5.29" fill="#fff"/>
      <path d="M254.4,413.31h-64.12v-6.29h64.12v6.29Zm-63.12-1h62.12v-4.29h-62.12v4.29Z" fill="#002346"/>
    </g>
    <g transform="matrix(1, 0, 0, 1, -38.348038, 89.970383)">
      <rect x="408.61" y="265.08" width="230.69" height="222.12" rx="11.59" ry="11.59" fill="#fff"/>
      <path d="M627.71,487.7h-207.51c-6.67,0-12.09-5.42-12.09-12.09v-198.94c0-6.67,5.42-12.09,12.09-12.09h207.51c6.67,0,12.09,5.42,12.09,12.09v198.94c0,6.67-5.42,12.09-12.09,12.09Zm-207.51-222.12c-6.11,0-11.09,4.97-11.09,11.09v198.94c0,6.12,4.98,11.09,11.09,11.09h207.51c6.11,0,11.09-4.98,11.09-11.09v-198.94c0-6.12-4.98-11.09-11.09-11.09h-207.51Z" fill="#002346"/>
    </g>
    <rect x="424.73" y="417.24" width="7.57" height="2.18" fill="#002346" transform="matrix(1, 0, 0, 1, -38.348038, 89.970383)"/>
    <rect x="463.246" y="487.17" width="9.69" height="2.18" fill="#002346" transform="matrix(1, 0, 0, 1, -59.734436, 31.710873)"/>
    <rect x="395.924" y="418.586" width="9.69" height="2.18" fill="#002346" transform="matrix(1, 0, 0, 1, 41.297882, 100.294853)"/>
    <rect x="509.27" y="428.91" width="9.69" height="2.18" fill="#002346" transform="matrix(1, 0, 0, 1, -38.348038, 89.970383)"/>
    <rect x="542.98" y="428.91" width="9.69" height="2.18" fill="#002346" transform="matrix(1, 0, 0, 1, -38.348038, 89.970383)"/>
    <rect x="576.69" y="428.91" width="9.69" height="2.18" fill="#002346" transform="matrix(1, 0, 0, 1, -38.348038, 89.970383)"/>
    <rect x="610.4" y="428.91" width="9.69" height="2.18" fill="#002346" transform="matrix(1, 0, 0, 1, -38.348038, 89.970383)"/>
    <rect x="424.73" y="388.1" width="7.57" height="2.18" fill="#002346" transform="matrix(1, 0, 0, 1, -38.348038, 89.970383)"/>
    <rect x="424.73" y="333.25" width="7.57" height="2.18" fill="#002346" transform="matrix(1, 0, 0, 1, -38.348038, 89.970383)"/>
    <rect x="424.73" y="305.7" width="7.57" height="2.18" fill="#002346" transform="matrix(1, 0, 0, 1, -38.348038, 89.970383)"/>
    <rect x="425.12" y="360.68" width="7.57" height="2.18" fill="#002346" transform="matrix(1, 0, 0, 1, -38.348038, 89.970383)"/>
    <path d="M 573.152 452.241 L 408.352 452.241 C 408.072 452.241 407.852 452.021 407.852 451.741 C 407.852 451.461 408.072 451.241 408.352 451.241 L 573.152 451.241 C 573.432 451.241 573.652 451.461 573.652 451.741 C 573.652 452.021 573.432 452.241 573.152 452.241 Z" fill="#002346"/>
    <path d="M 571.312 424.811 L 407.032 424.811 C 406.752 424.811 406.532 424.591 406.532 424.311 C 406.532 424.031 406.752 423.811 407.032 423.811 L 571.312 423.811 C 571.592 423.811 571.812 424.031 571.812 424.311 C 571.812 424.591 571.592 424.811 571.312 424.811 Z" fill="#002346"/>
    <path d="M 581.412 397.261 L 404.822 397.261 C 404.542 397.261 404.322 397.041 404.322 396.761 C 404.322 396.481 404.542 396.261 404.822 396.261 L 581.412 396.261 C 581.692 396.261 581.912 396.481 581.912 396.761 C 581.912 397.041 581.692 397.261 581.412 397.261 Z" fill="#002346"/>
    <g transform="matrix(1, 0, 0, 1, -38.348038, 89.970383)">
      <path d="M443.02,413.52v-24.33l15.37-23.54,10.44,7.9,21.4-32.81,12.58,8.78,17.57-30.32,14.28,11.46,21.4-40.14,23.06,44.87,18.67-22.45,21.96-6.2v106.72l-176.74,.06Z" fill="#a9d6e5"/>
      <path d="M442.52,414.02v-24.98l15.74-24.11,10.44,7.9,21.39-32.79,12.56,8.76,17.59-30.35,14.27,11.45,21.57-40.45,23.15,45.05,18.29-21.99,22.74-6.42v107.88h-.5l-177.24,.06Zm1-24.68v23.68l175.74-.06v-105.56l-21.17,5.98-19.06,22.91-22.97-44.69-21.24,39.83-14.3-11.47-17.55,30.29-12.6-8.8-21.41,32.83-10.44-7.9-14.99,22.97Z" fill="#002346"/>
    </g>
    <path d="M 408.282 484.101 C 408.192 484.101 408.102 484.071 408.012 484.021 C 407.782 483.871 407.712 483.561 407.862 483.331 L 437.202 437.031 C 437.292 436.891 437.442 436.801 437.612 436.801 C 437.782 436.791 437.932 436.871 438.032 437.001 L 461.712 469.241 L 498.792 408.551 C 498.882 408.401 499.042 408.311 499.222 408.311 L 543.702 408.311 L 561.262 384.741 C 561.352 384.611 561.502 384.541 561.662 384.541 L 583.862 384.541 C 584.142 384.541 584.362 384.761 584.362 385.041 C 584.362 385.321 584.142 385.541 583.862 385.541 L 561.912 385.541 L 544.352 409.111 C 544.262 409.241 544.112 409.311 543.952 409.311 L 499.502 409.311 L 462.182 470.401 C 462.092 470.541 461.942 470.631 461.772 470.641 C 461.582 470.641 461.442 470.571 461.352 470.441 L 437.662 438.191 L 408.712 483.871 C 408.612 484.021 408.452 484.101 408.292 484.101 L 408.282 484.101 Z" fill="#002346"/>
    <g transform="matrix(1, 0, 0, 1, -38.348038, 89.970383)">
      <path d="M493.25,364.76c.06,2.17-1.65,3.99-3.82,4.05-2.17,.06-3.99-1.65-4.05-3.82-.06-2.17,1.65-3.99,3.82-4.05h.12c2.12-.05,3.89,1.63,3.94,3.75,0,0,0,0,0,0v.07Z" fill="#fff"/>
      <path d="M489.31,369.31c-2.39,0-4.37-1.91-4.44-4.31-.07-2.44,1.86-4.49,4.3-4.56h.13c1.15-.01,2.25,.4,3.09,1.2,.84,.8,1.32,1.88,1.35,3.04l-.5,.08h.5c.03,1.17-.4,2.3-1.21,3.16-.81,.86-1.91,1.36-3.1,1.39-.04,0-.09,0-.13,0Zm.1-7.88s-.06,0-.08,0h-.13c-1.88,.06-3.37,1.64-3.32,3.54,.05,1.9,1.66,3.36,3.54,3.34,.92-.03,1.77-.41,2.4-1.08s.96-1.54,.94-2.46v-.08c-.02-.89-.39-1.72-1.04-2.34-.63-.6-1.44-.92-2.31-.92Z" fill="#002346"/>
    </g>
    <g transform="matrix(1, 0, 0, 1, -38.348038, 89.970383)">
      <path d="M530,335.78c.05,1.48-1.11,2.73-2.6,2.78-1.48,.05-2.73-1.11-2.78-2.6-.05-1.48,1.11-2.73,2.59-2.78h.09c1.46,0,2.66,1.15,2.69,2.61v-.02Z" fill="#fff"/>
      <path d="M527.31,339.07c-1.71,0-3.13-1.36-3.19-3.08-.06-1.76,1.32-3.24,3.07-3.3h.13c1.7,0,3.12,1.38,3.17,3.08h0c.06,1.76-1.32,3.24-3.08,3.3-.04,0-.07,0-.11,0Zm.01-5.38h-.01c-1.28,.04-2.23,1.06-2.19,2.26,.04,1.21,1.05,2.17,2.26,2.11,1.2-.04,2.15-1.05,2.11-2.25h0c-.03-1.17-1-2.12-2.17-2.12Z" fill="#002346"/>
    </g>
    <g transform="matrix(1, 0, 0, 1, -38.348038, 89.970383)">
      <path d="M573.52,318.26c.05,1.48-1.11,2.73-2.6,2.78-1.48,.05-2.73-1.11-2.78-2.6-.05-1.48,1.11-2.73,2.59-2.78h.09c1.46,0,2.66,1.15,2.69,2.61v-.02Z" fill="#fff"/>
      <path d="M570.83,321.54c-.81,0-1.58-.3-2.17-.86-.62-.58-.98-1.37-1.01-2.22-.06-1.76,1.32-3.24,3.07-3.3h.13c1.7,0,3.12,1.37,3.17,3.08h0c.03,.85-.27,1.66-.86,2.29-.58,.62-1.37,.98-2.22,1.01-.04,0-.08,0-.11,0Zm.02-5.38h-.01c-1.29,.04-2.23,1.06-2.19,2.26,.02,.58,.27,1.13,.69,1.53,.43,.4,1,.62,1.57,.59,.58-.02,1.13-.27,1.53-.69,.4-.43,.61-.98,.59-1.56h0c-.03-1.17-1-2.12-2.17-2.12Z" fill="#002346"/>
    </g>
    <g transform="matrix(1, 0, 0, 1, -38.348038, 89.970383)">
      <ellipse cx="452.93" cy="458.06" rx="11.07" ry="10.65" fill="#e6e7e8"/>
      <path d="M452.93,469.21c-6.38,0-11.57-5-11.57-11.15s5.19-11.15,11.57-11.15,11.57,5,11.57,11.15-5.19,11.15-11.57,11.15Zm0-21.3c-5.83,0-10.57,4.55-10.57,10.15s4.74,10.15,10.57,10.15,10.57-4.55,10.57-10.15-4.74-10.15-10.57-10.15Z" fill="#002346"/>
    </g>
    <g transform="matrix(1, 0, 0, 1, -38.348038, 89.970383)">
      <rect x="480.41" y="450.92" width="129.99" height="3.98" fill="#e6e7e8"/>
      <path d="M610.9,455.4h-130.99v-4.98h130.99v4.98Zm-129.99-1h128.99v-2.98h-128.99v2.98Z" fill="#002346"/>
    </g>
    <g transform="matrix(1, 0, 0, 1, -38.348038, 89.970383)">
      <rect x="480.41" y="460.88" width="53.97" height="3.98" fill="#e6e7e8"/>
      <path d="M534.88,465.36h-54.97v-4.98h54.97v4.98Zm-53.97-1h52.97v-2.98h-52.97v2.98Z" fill="#002346"/>
    </g>
    <g transform="matrix(1, 0, 0, 1, -38.348038, 89.970383)">
      <rect x="565.04" y="92.56" width="153.17" height="127.04" rx="6.81" ry="6.81" fill="#e6e7e8"/>
      <path d="M711.4,220.1h-139.55c-4.03,0-7.31-3.28-7.31-7.31V99.37c0-4.03,3.28-7.31,7.31-7.31h139.55c4.03,0,7.31,3.28,7.31,7.31v113.42c0,4.03-3.28,7.31-7.31,7.31Zm-139.55-127.04c-3.48,0-6.31,2.83-6.31,6.31v113.42c0,3.48,2.83,6.31,6.31,6.31h139.55c3.48,0,6.31-2.83,6.31-6.31V99.37c0-3.48-2.83-6.31-6.31-6.31h-139.55Z" fill="#002346"/>
    </g>
    <g transform="matrix(1, 0, 0, 1, -38.348038, 89.970383)">
      <g>
        <rect x="591.78" y="143.43" width="8.26" height="62.33" fill="#2a6f97"/>
        <path d="M600.54,206.26h-9.26v-63.33h9.26v63.33Zm-8.26-1h7.26v-61.33h-7.26v61.33Z" fill="#002346"/>
      </g>
      <g>
        <rect x="602.64" y="136.74" width="8.26" height="69.02" fill="#a9d6e5"/>
        <path d="M611.4,206.26h-9.26v-70.02h9.26v70.02Zm-8.26-1h7.26v-68.02h-7.26v68.02Z" fill="#002346"/>
      </g>
      <g>
        <rect x="613.5" y="161.96" width="8.26" height="43.8" fill="#fff"/>
        <path d="M622.26,206.26h-9.26v-44.8h9.26v44.8Zm-8.26-1h7.26v-42.8h-7.26v42.8Z" fill="#002346"/>
      </g>
    </g>
    <g transform="matrix(1, 0, 0, 1, -38.348038, 89.970383)">
      <g>
        <rect x="631.78" y="131.53" width="8.26" height="74.23" fill="#2a6f97"/>
        <path d="M640.54,206.26h-9.26v-75.23h9.26v75.23Zm-8.26-1h7.26v-73.23h-7.26v73.23Z" fill="#002346"/>
      </g>
      <g>
        <rect x="642.64" y="123.56" width="8.26" height="82.2" fill="#a9d6e5"/>
        <path d="M651.4,206.26h-9.26V123.06h9.26v83.2Zm-8.26-1h7.26V124.06h-7.26v81.2Z" fill="#002346"/>
      </g>
      <g>
        <rect x="653.5" y="153.59" width="8.26" height="52.16" fill="#fff"/>
        <path d="M662.26,206.26h-9.26v-53.17h9.26v53.17Zm-8.26-1h7.26v-51.17h-7.26v51.17Z" fill="#002346"/>
      </g>
    </g>
    <g transform="matrix(1, 0, 0, 1, -38.348038, 89.970383)">
      <g>
        <rect x="671.78" y="114.37" width="8.26" height="91.39" fill="#2a6f97"/>
        <path d="M680.54,206.26h-9.26V113.87h9.26v92.39Zm-8.26-1h7.26V114.87h-7.26v90.39Z" fill="#002346"/>
      </g>
      <g>
        <rect x="682.64" y="104.56" width="8.26" height="101.2" fill="#a9d6e5"/>
        <path d="M691.4,206.26h-9.26V104.06h9.26v102.2Zm-8.26-1h7.26V105.06h-7.26v100.2Z" fill="#002346"/>
      </g>
      <g>
        <rect x="693.5" y="141.54" width="8.26" height="64.22" fill="#fff"/>
        <path d="M702.26,206.26h-9.26v-65.22h9.26v65.22Zm-8.26-1h7.26v-63.22h-7.26v63.22Z" fill="#002346"/>
      </g>
    </g>
    <path d="M 674.312 302.061 L 535.762 302.061 C 535.482 302.061 535.262 301.841 535.262 301.561 C 535.262 301.281 535.482 301.061 535.762 301.061 L 674.312 301.061 C 674.592 301.061 674.812 301.281 674.812 301.561 C 674.812 301.841 674.592 302.061 674.312 302.061 Z" fill="#002346"/>
    <g transform="matrix(1, 0, 0, 1, -38.348038, 89.970383)">
      <rect x="574.11" y="194.67" width="5.04" height="1.67" fill="#fff"/>
      <path d="M579.65,196.84h-6.04v-2.67h6.04v2.67Zm-5.04-1h4.04v-.67h-4.04v.67Z" fill="#002346"/>
    </g>
    <g transform="matrix(1, 0, 0, 1, -38.348038, 89.970383)">
      <rect x="574.11" y="172.49" width="5.04" height="1.67" fill="#fff"/>
      <path d="M579.65,174.66h-6.04v-2.67h6.04v2.67Zm-5.04-1h4.04v-.67h-4.04v.67Z" fill="#002346"/>
    </g>
    <g transform="matrix(1, 0, 0, 1, -38.348038, 89.970383)">
      <rect x="574.11" y="130.73" width="5.04" height="1.67" fill="#fff"/>
      <path d="M579.65,132.9h-6.04v-2.67h6.04v2.67Zm-5.04-1h4.04v-.67h-4.04v.67Z" fill="#002346"/>
    </g>
    <g transform="matrix(1, 0, 0, 1, -38.348038, 89.970383)">
      <rect x="574.11" y="109.76" width="5.04" height="1.67" fill="#fff"/>
      <path d="M579.65,111.93h-6.04v-2.67h6.04v2.67Zm-5.04-1h4.04v-.67h-4.04v.67Z" fill="#002346"/>
    </g>
    <g transform="matrix(1, 0, 0, 1, -38.348038, 89.970383)">
      <rect x="574.37" y="151.61" width="5.04" height="1.67" fill="#fff"/>
      <path d="M579.91,153.78h-6.04v-2.67h6.04v2.67Zm-5.04-1h4.04v-.67h-4.04v.67Z" fill="#002346"/>
    </g>
    <g transform="matrix(1, 0, 0, 1, -38.348038, 89.970383)">
      <rect x="388.67" y="82.24" width="157.11" height="44.05" rx="4.45" ry="4.45" fill="#a9d6e5"/>
      <path d="M541.33,126.79h-148.21c-2.73,0-4.95-2.22-4.95-4.95v-35.15c0-2.73,2.22-4.95,4.95-4.95h148.21c2.73,0,4.95,2.22,4.95,4.95v35.15c0,2.73-2.22,4.95-4.95,4.95Zm-148.21-44.05c-2.18,0-3.95,1.77-3.95,3.95v35.15c0,2.18,1.77,3.95,3.95,3.95h148.21c2.18,0,3.95-1.77,3.95-3.95v-35.15c0-2.18-1.77-3.95-3.95-3.95h-148.21Z" fill="#002346"/>
    </g>
    <g transform="matrix(1, 0, 0, 1, -38.348038, 89.970383)">
      <path d="M421.78,110.27c-3.31,4.12-9.34,4.78-13.47,1.47-4.12-3.31-4.78-9.34-1.47-13.47,3.31-4.12,9.34-4.78,13.47-1.47h0c4.1,3.33,4.75,9.33,1.47,13.47Z" fill="#fff"/>
      <path d="M414.3,114.34c-2.22,0-4.44-.73-6.3-2.22-4.33-3.48-5.03-9.84-1.54-14.17,3.48-4.33,9.84-5.03,14.17-1.55,4.29,3.49,4.98,9.84,1.55,14.17h0c-1.99,2.48-4.92,3.77-7.87,3.77Zm.02-19.15c-2.66,0-5.3,1.16-7.09,3.39-3.14,3.9-2.51,9.63,1.39,12.77,3.9,3.13,9.63,2.51,12.77-1.39,3.09-3.9,2.47-9.63-1.4-12.77-1.67-1.34-3.68-1.99-5.67-1.99Z" fill="#002346"/>
    </g>
    <g transform="matrix(1, 0, 0, 1, -38.348038, 89.970383)">
      <rect x="98.82" y="250.78" width="173.94" height="48.77" rx="4.45" ry="4.45" fill="#e6e7e8"/>
      <path d="M268.31,300.05H103.27c-2.73,0-4.95-2.22-4.95-4.95v-39.87c0-2.73,2.22-4.95,4.95-4.95h165.04c2.73,0,4.95,2.22,4.95,4.95v39.87c0,2.73-2.22,4.95-4.95,4.95Zm-165.04-48.77c-2.18,0-3.95,1.77-3.95,3.95v39.87c0,2.18,1.77,3.95,3.95,3.95h165.04c2.18,0,3.95-1.77,3.95-3.95v-39.87c0-2.18-1.77-3.95-3.95-3.95H103.27Z" fill="#002346"/>
    </g>
    <g transform="matrix(1, 0, 0, 1, -38.348038, 89.970383)">
      <path d="M135.48,283.25c-3.66,4.57-10.33,5.3-14.9,1.64-4.57-3.66-5.3-10.33-1.64-14.9,3.66-4.57,10.33-5.3,14.9-1.64,0,0,0,0,0,0h0c4.56,3.65,5.3,10.31,1.65,14.88v.02Z" fill="#2a6f97"/>
      <path d="M127.2,287.71c-2.44,0-4.89-.8-6.93-2.43-4.78-3.83-5.55-10.83-1.72-15.6,1.85-2.31,4.5-3.77,7.45-4.09,2.95-.32,5.84,.52,8.16,2.37,4.75,3.81,5.54,10.76,1.76,15.54l-.05,.07c-2.19,2.73-5.42,4.15-8.67,4.15Zm.03-21.2c-.37,0-.75,.02-1.12,.06-2.68,.3-5.09,1.62-6.78,3.72-3.48,4.34-2.78,10.71,1.56,14.2,4.33,3.47,10.67,2.79,14.16-1.52l.05-.06c3.47-4.34,2.77-10.7-1.57-14.18-1.81-1.45-4.01-2.22-6.3-2.22Z" fill="#002346"/>
    </g>
    <path d="M 498.292 190.131 L 395.762 190.131 C 395.482 190.131 395.262 189.911 395.262 189.631 C 395.262 189.351 395.482 189.131 395.762 189.131 L 498.292 189.131 C 498.572 189.131 498.792 189.351 498.792 189.631 C 498.792 189.911 498.572 190.131 498.292 190.131 Z" fill="#002346"/>
    <path d="M 469.402 199.331 L 395.762 199.331 C 395.482 199.331 395.262 199.111 395.262 198.831 C 395.262 198.551 395.482 198.331 395.762 198.331 L 469.402 198.331 C 469.682 198.331 469.902 198.551 469.902 198.831 C 469.902 199.111 469.682 199.331 469.402 199.331 Z" fill="#002346"/>
    <g transform="matrix(1, 0, 0, 1, -38.348038, 89.970383)">
      <path d="M252.64,272.52h-102.53c-.28,0-.5-.22-.5-.5s.22-.5,.5-.5h102.53c.28,0,.5,.22,.5,.5s-.22,.5-.5,.5Z" fill="#002346"/>
      <path d="M223.75,281.72h-73.64c-.28,0-.5-.22-.5-.5s.22-.5,.5-.5h73.64c.28,0,.5,.22,.5,.5s-.22,.5-.5,.5Z" fill="#002346"/>
    </g>
    <path d="M 581.462 509.351 L 398.052 509.351 C 397.772 509.351 397.552 509.131 397.552 508.851 L 397.552 376.701 C 397.552 376.421 397.772 376.201 398.052 376.201 C 398.332 376.201 398.552 376.421 398.552 376.701 L 398.552 508.351 L 581.462 508.351 C 581.742 508.351 581.962 508.571 581.962 508.851 C 581.962 509.131 581.742 509.351 581.462 509.351 Z" fill="#002346"/>
    <g transform="matrix(1, 0, 0, 1, -38.348038, 89.970383)">
      <polyline points="408.92 103.28 413.26 107.62 419.67 100.9" fill="#fff"/>
      <path d="M413.26,108.13c-.13,0-.26-.05-.35-.15l-4.34-4.34c-.2-.2-.2-.51,0-.71s.51-.2,.71,0l3.98,3.98,6.06-6.35c.19-.2,.51-.21,.71-.02,.2,.19,.21,.51,.02,.71l-6.41,6.72c-.09,.1-.22,.15-.36,.16h0Z" fill="#002346"/>
    </g>
    <path d="M 87.912 370.101 C 87.782 370.101 87.652 370.051 87.562 369.951 L 83.222 365.611 C 83.022 365.411 83.022 365.101 83.222 364.901 C 83.422 364.701 83.732 364.701 83.932 364.901 L 87.912 368.881 L 93.972 362.531 C 94.162 362.331 94.482 362.321 94.682 362.511 C 94.882 362.701 94.892 363.021 94.702 363.221 L 88.292 369.941 C 88.202 370.041 88.072 370.091 87.932 370.101 L 87.912 370.101 Z" fill="#002346"/>
    <path d="M 373.392 262.031 C 369.532 262.031 366.392 258.891 366.392 255.031 C 366.392 251.171 369.532 248.031 373.392 248.031 C 377.252 248.031 380.392 251.171 380.392 255.031 C 380.392 258.891 377.252 262.031 373.392 262.031 Z M 373.392 249.031 C 370.082 249.031 367.392 251.721 367.392 255.031 C 367.392 258.341 370.082 261.031 373.392 261.031 C 376.702 261.031 379.392 258.341 379.392 255.031 C 379.392 251.721 376.702 249.031 373.392 249.031 Z" fill="#002346"/>
  </g>
</svg>