<?xml version="1.0" encoding="utf-8"?>
<svg id="a" width="800px" height="600px" viewBox="0 0 908.534 522.123" xmlns="http://www.w3.org/2000/svg">
  <g transform="matrix(1, 0, 0, 1, 74.483673, -48.672501)">
    <g transform="matrix(1, 0, 0, 1, -39.085499, 50.884888)">
      <rect x="232.51" y="68.03" width="423.6" height="329.61" fill="#fff"/>
      <path d="M656.61,398.14H232.01V67.53h424.6V398.14Zm-423.6-1h422.6V68.53H233.01V397.14Z" fill="#002346"/>
    </g>
    <path d="M 245.935 421.346 C 245.655 421.346 245.435 421.126 245.435 420.846 L 245.435 219.246 C 245.435 218.966 245.655 218.746 245.935 218.746 C 246.215 218.746 246.435 218.966 246.435 219.246 L 246.435 420.846 C 246.435 421.126 246.215 421.346 245.935 421.346 Z" fill="#002346"/>
    <path d="M 310.375 421.196 C 310.095 421.196 309.875 420.976 309.875 420.696 L 309.875 260.156 C 309.875 259.876 310.095 259.656 310.375 259.656 C 310.655 259.656 310.875 259.876 310.875 260.156 L 310.875 420.696 C 310.875 420.976 310.655 421.196 310.375 421.196 Z" fill="#002346"/>
    <path d="M 372.655 421.196 C 372.375 421.196 372.155 420.976 372.155 420.696 L 372.155 216.236 C 372.155 215.956 372.375 215.736 372.655 215.736 C 372.935 215.736 373.155 215.956 373.155 216.236 L 373.155 420.696 C 373.155 420.976 372.935 421.196 372.655 421.196 Z" fill="#002346"/>
    <path d="M 427.695 330.946 C 427.415 330.946 427.195 330.726 427.195 330.446 L 427.195 186.096 C 427.195 185.816 427.415 185.596 427.695 185.596 C 427.975 185.596 428.195 185.816 428.195 186.096 L 428.195 330.446 C 428.195 330.726 427.975 330.946 427.695 330.946 Z" fill="#002346"/>
    <path d="M 494.075 408.286 C 493.795 408.286 493.575 408.066 493.575 407.786 L 493.575 263.436 C 493.575 263.156 493.795 262.936 494.075 262.936 C 494.355 262.936 494.575 263.156 494.575 263.436 L 494.575 407.786 C 494.575 408.066 494.355 408.286 494.075 408.286 Z" fill="#002346"/>
    <circle cx="494.075" cy="261.936" r="1.5" fill="#002346"/>
    <path d="M 566.075 360.286 C 565.795 360.286 565.575 360.066 565.575 359.786 L 565.575 215.436 C 565.575 215.156 565.795 214.936 566.075 214.936 C 566.355 214.936 566.575 215.156 566.575 215.436 L 566.575 359.786 C 566.575 360.066 566.355 360.286 566.075 360.286 Z" fill="#002346"/>
    <circle cx="566.075" cy="213.936" r="1.5" fill="#002346"/>
    <path d="M 311.875 260.796 C 311.875 261.626 311.205 262.296 310.375 262.296 C 309.545 262.296 308.875 261.626 308.875 260.796 C 308.875 259.966 309.545 259.296 310.375 259.296 C 311.205 259.296 311.875 259.966 311.875 260.796 Z" fill="#002346"/>
    <circle cx="372.655" cy="216.236" r="1.5" fill="#002346"/>
    <circle cx="427.695" cy="184.596" r="1.5" fill="#002346"/>
    <circle cx="565.925" cy="216.236" r="1.5" fill="#263238"/>
    <path d="M 246.915 217.746 C 246.915 218.576 246.235 219.246 245.405 219.236 C 244.575 219.236 243.905 218.556 243.915 217.726 C 243.915 216.906 244.595 216.236 245.415 216.236 C 246.235 216.236 246.905 216.906 246.905 217.726 L 246.905 217.746 L 246.915 217.746 Z" fill="#002346"/>
    <path d="M 317.755 340.576 C 301.865 340.576 289.445 330.476 284.745 326.036 C 281.315 322.786 277.685 319.976 273.975 317.686 C 261.115 309.736 249.355 307.196 239.035 310.146 C 225.225 314.096 218.825 326.706 218.765 326.826 C 218.645 327.076 218.345 327.176 218.095 327.056 C 217.845 326.936 217.745 326.636 217.865 326.386 C 217.925 326.256 224.515 313.256 238.755 309.186 C 249.355 306.156 261.385 308.726 274.495 316.836 C 278.265 319.166 281.935 322.016 285.425 325.316 C 290.175 329.816 302.965 340.206 319.215 339.556 C 331.315 339.066 343.015 332.636 353.985 320.436 C 359.755 314.026 364.685 306.426 368.635 297.866 C 376.655 280.496 399.085 241.236 434.015 251.796 C 434.615 251.926 450.035 255.666 475.695 300.596 C 478.905 306.216 482.065 312.466 485.655 320.256 C 489.175 327.916 500.455 344.656 529.005 334.826 C 529.185 334.786 541.895 331.756 558.805 304.756 C 559.135 304.206 567.145 291.166 578.795 288.556 C 579.065 288.506 579.335 288.666 579.395 288.936 C 579.455 289.206 579.285 289.476 579.015 289.536 C 567.775 292.046 559.735 305.156 559.655 305.286 C 542.475 332.726 529.805 335.686 529.275 335.796 C 500.005 345.876 488.385 328.586 484.745 320.686 C 481.175 312.916 478.015 306.696 474.825 301.096 C 449.385 256.546 433.915 252.796 433.765 252.766 C 399.545 242.426 377.445 281.156 369.535 298.296 C 365.545 306.946 360.555 314.626 354.725 321.106 C 343.565 333.516 331.625 340.066 319.245 340.556 C 318.745 340.576 318.235 340.586 317.745 340.586 L 317.755 340.576 Z" fill="#2a6f97"/>
    <g transform="matrix(1, 0, 0, 1, -39.085499, 50.884888)">
      <rect x="283.03" y="105.02" width="73.86" height="4.11" fill="#fff"/>
      <path d="M357.39,109.63h-74.86v-5.11h74.86v5.11Zm-73.86-1h72.86v-3.11h-72.86v3.11Z" fill="#002346"/>
    </g>
    <g transform="matrix(1, 0, 0, 1, -39.085499, 50.884888)">
      <rect x="283.03" y="114.64" width="36.49" height="4.11" fill="#fff"/>
      <path d="M320.02,119.25h-37.49v-5.11h37.49v5.11Zm-36.49-1h35.49v-3.11h-35.49v3.11Z" fill="#002346"/>
    </g>
    <g transform="matrix(1, 0, 0, 1, -39.085499, 50.884888)">
      <path d="M238.21,41.14h411.69c3.43,0,6.21,2.78,6.21,6.21h0v20.65H232v-20.64c0-3.43,2.77-6.21,6.2-6.22,0,0,0,0,.01,0Z" fill="#2a6f97"/>
      <path d="M656.61,68.5H231.5v-21.14c0-1.79,.69-3.48,1.96-4.75,1.27-1.27,2.95-1.97,4.74-1.97h411.7c3.7,0,6.71,3.01,6.71,6.71v21.15Zm-424.11-1h423.11v-20.14c0-3.16-2.56-5.72-5.71-5.72H238.2c-1.52,0-2.96,.6-4.03,1.68s-1.67,2.51-1.67,4.04v20.14Z" fill="#002346"/>
    </g>
    <g transform="matrix(1, 0, 0, 1, -39.085499, 50.884888)">
      <path d="M251.63,55.1c0,1.99-1.6,3.61-3.59,3.62-1.99,0-3.61-1.6-3.62-3.59,0-1.99,1.6-3.61,3.59-3.62,0,0,.02,0,.02,0,1.99,0,3.59,1.61,3.59,3.59Z" fill="#fff"/>
      <path d="M248.02,59.22c-2.26,0-4.1-1.83-4.11-4.09,0-1.1,.42-2.13,1.19-2.91s1.8-1.21,2.9-1.21c2.28,0,4.12,1.84,4.12,4.09h0c0,1.1-.42,2.13-1.19,2.91s-1.8,1.21-2.9,1.21h-.01Zm.01-7.21c-.85,0-1.63,.33-2.22,.92-.58,.59-.91,1.37-.9,2.2,0,1.71,1.4,3.1,3.11,3.1h.01c.83,0,1.61-.33,2.19-.92,.58-.59,.91-1.37,.9-2.2h0c0-1.71-1.39-3.1-3.09-3.1Z" fill="#002346"/>
    </g>
    <g transform="matrix(1, 0, 0, 1, -39.085499, 50.884888)">
      <path d="M267.32,55.1c0,1.99-1.6,3.61-3.59,3.62-1.99,0-3.61-1.6-3.62-3.59,0-1.99,1.6-3.61,3.59-3.62,0,0,0,0,.01,0,1.99,0,3.6,1.6,3.61,3.58,0,0,0,0,0,.01Z" fill="#fff"/>
      <path d="M263.72,59.22c-1.09,0-2.12-.42-2.89-1.19-.78-.77-1.21-1.8-1.21-2.9,0-1.1,.42-2.13,1.19-2.91s1.8-1.21,2.9-1.21h.01c1.1,0,2.12,.42,2.9,1.19,.78,.77,1.21,1.8,1.21,2.89h0c0,1.11-.42,2.14-1.19,2.92s-1.8,1.21-2.9,1.21h-.01Zm.01-7.21h-.01c-.84,0-1.62,.33-2.21,.92-.58,.59-.91,1.37-.9,2.2s.33,1.61,.92,2.19c.59,.58,1.36,.9,2.19,.9h.01c.83,0,1.61-.33,2.19-.92,.58-.59,.91-1.37,.9-2.2h0c0-.84-.33-1.62-.91-2.2-.58-.58-1.36-.9-2.18-.9Z" fill="#002346"/>
    </g>
    <g transform="matrix(1, 0, 0, 1, -39.085499, 50.884888)">
      <path d="M283.02,55.1c0,1.99-1.6,3.61-3.59,3.62-1.99,0-3.61-1.6-3.62-3.59,0-1.99,1.6-3.61,3.59-3.62,0,0,.02,0,.02,0,1.99,0,3.59,1.61,3.59,3.59h0Z" fill="#fff"/>
      <path d="M279.42,59.22c-2.26,0-4.1-1.83-4.11-4.09,0-1.1,.42-2.13,1.19-2.91s1.8-1.21,2.9-1.21c2.28,0,4.12,1.84,4.12,4.09h0c0,1.1-.42,2.13-1.19,2.91s-1.8,1.21-2.9,1.21h-.01Zm.01-7.21c-.85,0-1.63,.33-2.22,.92-.58,.59-.91,1.37-.9,2.2,0,1.71,1.4,3.1,3.11,3.1h.01c.83,0,1.61-.33,2.19-.92,.58-.59,.91-1.37,.9-2.2h0c0-1.71-1.39-3.1-3.09-3.1Z" fill="#002346"/>
    </g>
    <g transform="matrix(1, 0, 0, 1, -39.085499, 50.884888)">
      <rect x="149.13" y="130.17" width="171.48" height="71.21" rx="3.61" ry="3.61" fill="#fff"/>
      <path d="M317,201.88H152.74c-2.27,0-4.11-1.84-4.11-4.11v-63.99c0-2.27,1.84-4.11,4.11-4.11h164.26c2.27,0,4.11,1.84,4.11,4.11v63.99c0,2.27-1.84,4.11-4.11,4.11Zm-164.26-71.21c-1.71,0-3.11,1.39-3.11,3.11v63.99c0,1.71,1.4,3.11,3.11,3.11h164.26c1.71,0,3.11-1.4,3.11-3.11v-63.99c0-1.71-1.4-3.11-3.11-3.11H152.74Z" fill="#002346"/>
    </g>
    <g transform="matrix(1, 0, 0, 1, -39.085499, 50.884888)">
      <path d="M184.76,152.67c0,4.42-3.58,8-8,8s-8-3.58-8-8,3.58-8,8-8,8,3.58,8,8Z" fill="#2a6f97"/>
      <path d="M176.76,161.17c-4.69,0-8.5-3.81-8.5-8.5s3.81-8.5,8.5-8.5,8.5,3.81,8.5,8.5-3.81,8.5-8.5,8.5Zm0-16c-4.14,0-7.5,3.36-7.5,7.5s3.36,7.5,7.5,7.5,7.5-3.36,7.5-7.5-3.36-7.5-7.5-7.5Z" fill="#002346"/>
    </g>
    <g transform="matrix(1, 0, 0, 1, -39.085499, 50.884888)">
      <rect x="192.75" y="147.15" width="55.71" height="3.09" fill="#2a6f97"/>
      <path d="M248.96,150.74h-56.71v-4.09h56.71v4.09Zm-55.71-1h54.71v-2.09h-54.71v2.09Z" fill="#002346"/>
    </g>
    <g transform="matrix(1, 0, 0, 1, -39.085499, 50.884888)">
      <rect x="192.75" y="154.18" width="108.35" height="3.09" fill="#fff"/>
      <path d="M301.6,157.77h-109.35v-4.09h109.35v4.09Zm-108.35-1h107.35v-2.09h-107.35v2.09Z" fill="#002346"/>
    </g>
    <g transform="matrix(1, 0, 0, 1, -39.085499, 50.884888)">
      <path d="M184.76,177.25c0,4.42-3.58,8-8,8s-8-3.58-8-8,3.58-8,8-8,8,3.58,8,8Z" fill="#2a6f97"/>
      <path d="M176.76,185.75c-4.69,0-8.5-3.81-8.5-8.5s3.81-8.5,8.5-8.5,8.5,3.81,8.5,8.5-3.81,8.5-8.5,8.5Zm0-16c-4.14,0-7.5,3.36-7.5,7.5s3.36,7.5,7.5,7.5,7.5-3.36,7.5-7.5-3.36-7.5-7.5-7.5Z" fill="#002346"/>
    </g>
    <g transform="matrix(1, 0, 0, 1, -39.085499, 50.884888)">
      <rect x="192.75" y="171.73" width="28.45" height="3.09" fill="#2a6f97"/>
      <path d="M221.7,175.32h-29.45v-4.09h29.45v4.09Zm-28.45-1h27.45v-2.09h-27.45v2.09Z" fill="#002346"/>
    </g>
    <g transform="matrix(1, 0, 0, 1, -39.085499, 50.884888)">
      <rect x="192.75" y="178.75" width="108.35" height="3.09" fill="#fff"/>
      <path d="M301.6,182.34h-109.35v-4.09h109.35v4.09Zm-108.35-1h107.35v-2.09h-107.35v2.09Z" fill="#002346"/>
    </g>
    <g transform="matrix(1, 0, 0, 1, -39.085499, 50.884888)">
      <rect x="108.78" y="346.08" width="221.25" height="94.05" rx="5.46" ry="5.46" fill="#a9d6e5"/>
      <path d="M324.57,440.63H114.24c-3.29,0-5.96-2.67-5.96-5.96v-83.13c0-3.29,2.67-5.96,5.96-5.96h210.33c3.29,0,5.96,2.67,5.96,5.96v83.13c0,3.29-2.67,5.96-5.96,5.96Zm-210.33-94.05c-2.73,0-4.96,2.22-4.96,4.96v83.13c0,2.74,2.23,4.96,4.96,4.96h210.33c2.73,0,4.96-2.22,4.96-4.96v-83.13c0-2.74-2.23-4.96-4.96-4.96H114.24Z" fill="#002346"/>
    </g>
    <g transform="matrix(1, 0, 0, 1, -39.085499, 50.884888)">
      <path d="M135.09,399.06l14.15-3.06,.02-4.48-.13-19.07c-5.82,.1-11.4,2.28-15.75,6.15-5.65,4.91-8.49,12.31-7.58,19.74,.1,.91,.25,1.84,.44,2.76l8.85-2.04Z" fill="#2a6f97"/>
      <path d="M125.85,401.7l-.1-.5c-.2-.95-.35-1.9-.45-2.81-.93-7.6,1.97-15.14,7.75-20.17,4.43-3.94,10.14-6.17,16.07-6.27h.51s.13,19.57,.13,19.57l-.02,4.89-14.54,3.14-9.35,2.16Zm22.78-28.74c-5.51,.21-10.79,2.34-14.92,6.01-5.54,4.81-8.31,12.03-7.42,19.31,.08,.72,.19,1.47,.33,2.22l8.36-1.93,13.76-2.97,.02-4.08-.13-18.55Z" fill="#002346"/>
    </g>
    <g transform="matrix(1, 0, 0, 1, -39.085499, 50.884888)">
      <path d="M173,385.65c-3.41-7.34-10.49-12.3-18.55-13l-.73-.07h-2l.12,19.07v4.48l23,4.94h0c.36-1.63,.53-3.29,.51-4.95,0-3.62-.81-7.2-2.35-10.47Z" fill="#e6e7e8"/>
      <path d="M175.22,401.66l-23.88-5.13v-4.88l-.12-19.57h2.5l.78,.07c8.21,.72,15.48,5.81,18.96,13.29,1.57,3.32,2.39,7.01,2.4,10.68,.02,1.69-.15,3.4-.52,5.06l-.11,.49Zm-22.88-5.94l22.11,4.75c.28-1.43,.41-2.89,.4-4.35,0-3.53-.8-7.08-2.3-10.26h0c-3.33-7.16-10.28-12.03-18.14-12.71l-.73-.07h-1.45s.12,22.65,.12,22.65Z" fill="#002346"/>
    </g>
    <g transform="matrix(1, 0, 0, 1, -39.085499, 50.884888)">
      <path d="M150.09,398.33l-22.61,5.18c2.86,12.69,15.47,20.66,28.16,17.8,8.93-2.01,15.88-9.01,17.84-17.95l-22.39-5.3-1,.27Z" fill="#fff"/>
      <path d="M150.41,422.4c-4.5,0-8.91-1.27-12.81-3.73-5.43-3.43-9.2-8.78-10.62-15.05l-.11-.49,24.2-5.59,22.99,5.44-.1,.48c-1.99,9.09-9.14,16.29-18.21,18.33-1.77,.4-3.56,.6-5.34,.6Zm-22.33-18.51c1.44,5.8,4.99,10.73,10.06,13.94,5.21,3.29,11.38,4.36,17.39,3,8.54-1.93,15.3-8.61,17.35-17.09l-21.78-5.16-.9,.24-22.12,5.07Z" fill="#002346"/>
    </g>
    <g transform="matrix(1, 0, 0, 1, -39.085499, 50.884888)">
      <rect x="190.78" y="378.15" width="116.77" height="5.29" fill="#fff"/>
      <path d="M308.05,383.94h-117.77v-6.29h117.77v6.29Zm-116.77-1h115.77v-4.29h-115.77v4.29Z" fill="#002346"/>
    </g>
    <g transform="matrix(1, 0, 0, 1, -39.085499, 50.884888)">
      <rect x="190.78" y="392.1" width="116.77" height="5.29" fill="#fff"/>
      <path d="M308.05,397.89h-117.77v-6.29h117.77v6.29Zm-116.77-1h115.77v-4.29h-115.77v4.29Z" fill="#002346"/>
    </g>
    <g transform="matrix(1, 0, 0, 1, -39.085499, 50.884888)">
      <rect x="190.78" y="407.52" width="63.12" height="5.29" fill="#fff"/>
      <path d="M254.4,413.31h-64.12v-6.29h64.12v6.29Zm-63.12-1h62.12v-4.29h-62.12v4.29Z" fill="#002346"/>
    </g>
    <g transform="matrix(1, 0, 0, 1, -39.085499, 50.884888)">
      <rect x="408.61" y="265.08" width="230.69" height="222.12" rx="11.59" ry="11.59" fill="#fff"/>
      <path d="M627.71,487.7h-207.51c-6.67,0-12.09-5.42-12.09-12.09v-198.94c0-6.67,5.42-12.09,12.09-12.09h207.51c6.67,0,12.09,5.42,12.09,12.09v198.94c0,6.67-5.42,12.09-12.09,12.09Zm-207.51-222.12c-6.11,0-11.09,4.97-11.09,11.09v198.94c0,6.12,4.98,11.09,11.09,11.09h207.51c6.11,0,11.09-4.98,11.09-11.09v-198.94c0-6.12-4.98-11.09-11.09-11.09h-207.51Z" fill="#002346"/>
    </g>
    <rect x="424.73" y="417.24" width="7.57" height="2.18" fill="#002346" transform="matrix(1, 0, 0, 1, -39.085499, 50.884888)"/>
    <rect x="463.246" y="487.17" width="9.69" height="2.18" fill="#002346" transform="matrix(1, 0, 0, 1, -60.471897, -7.374623)"/>
    <rect x="395.924" y="418.586" width="9.69" height="2.18" fill="#002346" transform="matrix(1, 0, 0, 1, 40.560421, 61.209358)"/>
    <rect x="509.27" y="428.91" width="9.69" height="2.18" fill="#002346" transform="matrix(1, 0, 0, 1, -39.085499, 50.884888)"/>
    <rect x="542.98" y="428.91" width="9.69" height="2.18" fill="#002346" transform="matrix(1, 0, 0, 1, -39.085499, 50.884888)"/>
    <rect x="576.69" y="428.91" width="9.69" height="2.18" fill="#002346" transform="matrix(1, 0, 0, 1, -39.085499, 50.884888)"/>
    <rect x="610.4" y="428.91" width="9.69" height="2.18" fill="#002346" transform="matrix(1, 0, 0, 1, -39.085499, 50.884888)"/>
    <rect x="424.73" y="388.1" width="7.57" height="2.18" fill="#002346" transform="matrix(1, 0, 0, 1, -39.085499, 50.884888)"/>
    <rect x="424.73" y="333.25" width="7.57" height="2.18" fill="#002346" transform="matrix(1, 0, 0, 1, -39.085499, 50.884888)"/>
    <rect x="424.73" y="305.7" width="7.57" height="2.18" fill="#002346" transform="matrix(1, 0, 0, 1, -39.085499, 50.884888)"/>
    <rect x="425.12" y="360.68" width="7.57" height="2.18" fill="#002346" transform="matrix(1, 0, 0, 1, -39.085499, 50.884888)"/>
    <path d="M 572.415 413.156 L 407.615 413.156 C 407.335 413.156 407.115 412.936 407.115 412.656 C 407.115 412.376 407.335 412.156 407.615 412.156 L 572.415 412.156 C 572.695 412.156 572.915 412.376 572.915 412.656 C 572.915 412.936 572.695 413.156 572.415 413.156 Z" fill="#002346"/>
    <path d="M 570.575 385.726 L 406.295 385.726 C 406.015 385.726 405.795 385.506 405.795 385.226 C 405.795 384.946 406.015 384.726 406.295 384.726 L 570.575 384.726 C 570.855 384.726 571.075 384.946 571.075 385.226 C 571.075 385.506 570.855 385.726 570.575 385.726 Z" fill="#002346"/>
    <path d="M 580.675 358.176 L 404.085 358.176 C 403.805 358.176 403.585 357.956 403.585 357.676 C 403.585 357.396 403.805 357.176 404.085 357.176 L 580.675 357.176 C 580.955 357.176 581.175 357.396 581.175 357.676 C 581.175 357.956 580.955 358.176 580.675 358.176 Z" fill="#002346"/>
    <g transform="matrix(1, 0, 0, 1, -39.085499, 50.884888)">
      <path d="M443.02,413.52v-24.33l15.37-23.54,10.44,7.9,21.4-32.81,12.58,8.78,17.57-30.32,14.28,11.46,21.4-40.14,23.06,44.87,18.67-22.45,21.96-6.2v106.72l-176.74,.06Z" fill="#a9d6e5"/>
      <path d="M442.52,414.02v-24.98l15.74-24.11,10.44,7.9,21.39-32.79,12.56,8.76,17.59-30.35,14.27,11.45,21.57-40.45,23.15,45.05,18.29-21.99,22.74-6.42v107.88h-.5l-177.24,.06Zm1-24.68v23.68l175.74-.06v-105.56l-21.17,5.98-19.06,22.91-22.97-44.69-21.24,39.83-14.3-11.47-17.55,30.29-12.6-8.8-21.41,32.83-10.44-7.9-14.99,22.97Z" fill="#002346"/>
    </g>
    <path d="M 407.545 445.016 C 407.455 445.016 407.365 444.986 407.275 444.936 C 407.045 444.786 406.975 444.476 407.125 444.246 L 436.465 397.946 C 436.555 397.806 436.705 397.716 436.875 397.716 C 437.045 397.706 437.195 397.786 437.295 397.916 L 460.975 430.156 L 498.055 369.466 C 498.145 369.316 498.305 369.226 498.485 369.226 L 542.965 369.226 L 560.525 345.656 C 560.615 345.526 560.765 345.456 560.925 345.456 L 583.125 345.456 C 583.405 345.456 583.625 345.676 583.625 345.956 C 583.625 346.236 583.405 346.456 583.125 346.456 L 561.175 346.456 L 543.615 370.026 C 543.525 370.156 543.375 370.226 543.215 370.226 L 498.765 370.226 L 461.445 431.316 C 461.355 431.456 461.205 431.546 461.035 431.556 C 460.845 431.556 460.705 431.486 460.615 431.356 L 436.925 399.106 L 407.975 444.786 C 407.875 444.936 407.715 445.016 407.555 445.016 L 407.545 445.016 Z" fill="#002346"/>
    <g transform="matrix(1, 0, 0, 1, -39.085499, 50.884888)">
      <path d="M493.25,364.76c.06,2.17-1.65,3.99-3.82,4.05-2.17,.06-3.99-1.65-4.05-3.82-.06-2.17,1.65-3.99,3.82-4.05h.12c2.12-.05,3.89,1.63,3.94,3.75,0,0,0,0,0,0v.07Z" fill="#fff"/>
      <path d="M489.31,369.31c-2.39,0-4.37-1.91-4.44-4.31-.07-2.44,1.86-4.49,4.3-4.56h.13c1.15-.01,2.25,.4,3.09,1.2,.84,.8,1.32,1.88,1.35,3.04l-.5,.08h.5c.03,1.17-.4,2.3-1.21,3.16-.81,.86-1.91,1.36-3.1,1.39-.04,0-.09,0-.13,0Zm.1-7.88s-.06,0-.08,0h-.13c-1.88,.06-3.37,1.64-3.32,3.54,.05,1.9,1.66,3.36,3.54,3.34,.92-.03,1.77-.41,2.4-1.08s.96-1.54,.94-2.46v-.08c-.02-.89-.39-1.72-1.04-2.34-.63-.6-1.44-.92-2.31-.92Z" fill="#002346"/>
    </g>
    <g transform="matrix(1, 0, 0, 1, -39.085499, 50.884888)">
      <path d="M530,335.78c.05,1.48-1.11,2.73-2.6,2.78-1.48,.05-2.73-1.11-2.78-2.6-.05-1.48,1.11-2.73,2.59-2.78h.09c1.46,0,2.66,1.15,2.69,2.61v-.02Z" fill="#fff"/>
      <path d="M527.31,339.07c-1.71,0-3.13-1.36-3.19-3.08-.06-1.76,1.32-3.24,3.07-3.3h.13c1.7,0,3.12,1.38,3.17,3.08h0c.06,1.76-1.32,3.24-3.08,3.3-.04,0-.07,0-.11,0Zm.01-5.38h-.01c-1.28,.04-2.23,1.06-2.19,2.26,.04,1.21,1.05,2.17,2.26,2.11,1.2-.04,2.15-1.05,2.11-2.25h0c-.03-1.17-1-2.12-2.17-2.12Z" fill="#002346"/>
    </g>
    <g transform="matrix(1, 0, 0, 1, -39.085499, 50.884888)">
      <path d="M573.52,318.26c.05,1.48-1.11,2.73-2.6,2.78-1.48,.05-2.73-1.11-2.78-2.6-.05-1.48,1.11-2.73,2.59-2.78h.09c1.46,0,2.66,1.15,2.69,2.61v-.02Z" fill="#fff"/>
      <path d="M570.83,321.54c-.81,0-1.58-.3-2.17-.86-.62-.58-.98-1.37-1.01-2.22-.06-1.76,1.32-3.24,3.07-3.3h.13c1.7,0,3.12,1.37,3.17,3.08h0c.03,.85-.27,1.66-.86,2.29-.58,.62-1.37,.98-2.22,1.01-.04,0-.08,0-.11,0Zm.02-5.38h-.01c-1.29,.04-2.23,1.06-2.19,2.26,.02,.58,.27,1.13,.69,1.53,.43,.4,1,.62,1.57,.59,.58-.02,1.13-.27,1.53-.69,.4-.43,.61-.98,.59-1.56h0c-.03-1.17-1-2.12-2.17-2.12Z" fill="#002346"/>
    </g>
    <g transform="matrix(1, 0, 0, 1, -39.085499, 50.884888)">
      <ellipse cx="452.93" cy="458.06" rx="11.07" ry="10.65" fill="#e6e7e8"/>
      <path d="M452.93,469.21c-6.38,0-11.57-5-11.57-11.15s5.19-11.15,11.57-11.15,11.57,5,11.57,11.15-5.19,11.15-11.57,11.15Zm0-21.3c-5.83,0-10.57,4.55-10.57,10.15s4.74,10.15,10.57,10.15,10.57-4.55,10.57-10.15-4.74-10.15-10.57-10.15Z" fill="#002346"/>
    </g>
    <g transform="matrix(1, 0, 0, 1, -39.085499, 50.884888)">
      <rect x="480.41" y="450.92" width="129.99" height="3.98" fill="#e6e7e8"/>
      <path d="M610.9,455.4h-130.99v-4.98h130.99v4.98Zm-129.99-1h128.99v-2.98h-128.99v2.98Z" fill="#002346"/>
    </g>
    <g transform="matrix(1, 0, 0, 1, -39.085499, 50.884888)">
      <rect x="480.41" y="460.88" width="53.97" height="3.98" fill="#e6e7e8"/>
      <path d="M534.88,465.36h-54.97v-4.98h54.97v4.98Zm-53.97-1h52.97v-2.98h-52.97v2.98Z" fill="#002346"/>
    </g>
    <g transform="matrix(1, 0, 0, 1, -39.085499, 50.884888)">
      <rect x="565.04" y="92.56" width="153.17" height="127.04" rx="6.81" ry="6.81" fill="#e6e7e8"/>
      <path d="M711.4,220.1h-139.55c-4.03,0-7.31-3.28-7.31-7.31V99.37c0-4.03,3.28-7.31,7.31-7.31h139.55c4.03,0,7.31,3.28,7.31,7.31v113.42c0,4.03-3.28,7.31-7.31,7.31Zm-139.55-127.04c-3.48,0-6.31,2.83-6.31,6.31v113.42c0,3.48,2.83,6.31,6.31,6.31h139.55c3.48,0,6.31-2.83,6.31-6.31V99.37c0-3.48-2.83-6.31-6.31-6.31h-139.55Z" fill="#002346"/>
    </g>
    <g transform="matrix(1, 0, 0, 1, -39.085499, 50.884888)">
      <g>
        <rect x="591.78" y="143.43" width="8.26" height="62.33" fill="#2a6f97"/>
        <path d="M600.54,206.26h-9.26v-63.33h9.26v63.33Zm-8.26-1h7.26v-61.33h-7.26v61.33Z" fill="#002346"/>
      </g>
      <g>
        <rect x="602.64" y="136.74" width="8.26" height="69.02" fill="#a9d6e5"/>
        <path d="M611.4,206.26h-9.26v-70.02h9.26v70.02Zm-8.26-1h7.26v-68.02h-7.26v68.02Z" fill="#002346"/>
      </g>
      <g>
        <rect x="613.5" y="161.96" width="8.26" height="43.8" fill="#fff"/>
        <path d="M622.26,206.26h-9.26v-44.8h9.26v44.8Zm-8.26-1h7.26v-42.8h-7.26v42.8Z" fill="#002346"/>
      </g>
    </g>
    <g transform="matrix(1, 0, 0, 1, -39.085499, 50.884888)">
      <g>
        <rect x="631.78" y="131.53" width="8.26" height="74.23" fill="#2a6f97"/>
        <path d="M640.54,206.26h-9.26v-75.23h9.26v75.23Zm-8.26-1h7.26v-73.23h-7.26v73.23Z" fill="#002346"/>
      </g>
      <g>
        <rect x="642.64" y="123.56" width="8.26" height="82.2" fill="#a9d6e5"/>
        <path d="M651.4,206.26h-9.26V123.06h9.26v83.2Zm-8.26-1h7.26V124.06h-7.26v81.2Z" fill="#002346"/>
      </g>
      <g>
        <rect x="653.5" y="153.59" width="8.26" height="52.16" fill="#fff"/>
        <path d="M662.26,206.26h-9.26v-53.17h9.26v53.17Zm-8.26-1h7.26v-51.17h-7.26v51.17Z" fill="#002346"/>
      </g>
    </g>
    <g transform="matrix(1, 0, 0, 1, -39.085499, 50.884888)">
      <g>
        <rect x="671.78" y="114.37" width="8.26" height="91.39" fill="#2a6f97"/>
        <path d="M680.54,206.26h-9.26V113.87h9.26v92.39Zm-8.26-1h7.26V114.87h-7.26v90.39Z" fill="#002346"/>
      </g>
      <g>
        <rect x="682.64" y="104.56" width="8.26" height="101.2" fill="#a9d6e5"/>
        <path d="M691.4,206.26h-9.26V104.06h9.26v102.2Zm-8.26-1h7.26V105.06h-7.26v100.2Z" fill="#002346"/>
      </g>
      <g>
        <rect x="693.5" y="141.54" width="8.26" height="64.22" fill="#fff"/>
        <path d="M702.26,206.26h-9.26v-65.22h9.26v65.22Zm-8.26-1h7.26v-63.22h-7.26v63.22Z" fill="#002346"/>
      </g>
    </g>
    <path d="M 673.575 262.976 L 535.025 262.976 C 534.745 262.976 534.525 262.756 534.525 262.476 C 534.525 262.196 534.745 261.976 535.025 261.976 L 673.575 261.976 C 673.855 261.976 674.075 262.196 674.075 262.476 C 674.075 262.756 673.855 262.976 673.575 262.976 Z" fill="#002346"/>
    <g transform="matrix(1, 0, 0, 1, -39.085499, 50.884888)">
      <rect x="574.11" y="194.67" width="5.04" height="1.67" fill="#fff"/>
      <path d="M579.65,196.84h-6.04v-2.67h6.04v2.67Zm-5.04-1h4.04v-.67h-4.04v.67Z" fill="#002346"/>
    </g>
    <g transform="matrix(1, 0, 0, 1, -39.085499, 50.884888)">
      <rect x="574.11" y="172.49" width="5.04" height="1.67" fill="#fff"/>
      <path d="M579.65,174.66h-6.04v-2.67h6.04v2.67Zm-5.04-1h4.04v-.67h-4.04v.67Z" fill="#002346"/>
    </g>
    <g transform="matrix(1, 0, 0, 1, -39.085499, 50.884888)">
      <rect x="574.11" y="130.73" width="5.04" height="1.67" fill="#fff"/>
      <path d="M579.65,132.9h-6.04v-2.67h6.04v2.67Zm-5.04-1h4.04v-.67h-4.04v.67Z" fill="#002346"/>
    </g>
    <g transform="matrix(1, 0, 0, 1, -39.085499, 50.884888)">
      <rect x="574.11" y="109.76" width="5.04" height="1.67" fill="#fff"/>
      <path d="M579.65,111.93h-6.04v-2.67h6.04v2.67Zm-5.04-1h4.04v-.67h-4.04v.67Z" fill="#002346"/>
    </g>
    <g transform="matrix(1, 0, 0, 1, -39.085499, 50.884888)">
      <rect x="574.37" y="151.61" width="5.04" height="1.67" fill="#fff"/>
      <path d="M579.91,153.78h-6.04v-2.67h6.04v2.67Zm-5.04-1h4.04v-.67h-4.04v.67Z" fill="#002346"/>
    </g>
    <g transform="matrix(1, 0, 0, 1, -39.085499, 50.884888)">
      <rect x="388.67" y="82.24" width="157.11" height="44.05" rx="4.45" ry="4.45" fill="#a9d6e5"/>
      <path d="M541.33,126.79h-148.21c-2.73,0-4.95-2.22-4.95-4.95v-35.15c0-2.73,2.22-4.95,4.95-4.95h148.21c2.73,0,4.95,2.22,4.95,4.95v35.15c0,2.73-2.22,4.95-4.95,4.95Zm-148.21-44.05c-2.18,0-3.95,1.77-3.95,3.95v35.15c0,2.18,1.77,3.95,3.95,3.95h148.21c2.18,0,3.95-1.77,3.95-3.95v-35.15c0-2.18-1.77-3.95-3.95-3.95h-148.21Z" fill="#002346"/>
    </g>
    <g transform="matrix(1, 0, 0, 1, -39.085499, 50.884888)">
      <path d="M421.78,110.27c-3.31,4.12-9.34,4.78-13.47,1.47-4.12-3.31-4.78-9.34-1.47-13.47,3.31-4.12,9.34-4.78,13.47-1.47h0c4.1,3.33,4.75,9.33,1.47,13.47Z" fill="#fff"/>
      <path d="M414.3,114.34c-2.22,0-4.44-.73-6.3-2.22-4.33-3.48-5.03-9.84-1.54-14.17,3.48-4.33,9.84-5.03,14.17-1.55,4.29,3.49,4.98,9.84,1.55,14.17h0c-1.99,2.48-4.92,3.77-7.87,3.77Zm.02-19.15c-2.66,0-5.3,1.16-7.09,3.39-3.14,3.9-2.51,9.63,1.39,12.77,3.9,3.13,9.63,2.51,12.77-1.39,3.09-3.9,2.47-9.63-1.4-12.77-1.67-1.34-3.68-1.99-5.67-1.99Z" fill="#002346"/>
    </g>
    <g transform="matrix(1, 0, 0, 1, -39.085499, 50.884888)">
      <rect x="98.82" y="250.78" width="173.94" height="48.77" rx="4.45" ry="4.45" fill="#e6e7e8"/>
      <path d="M268.31,300.05H103.27c-2.73,0-4.95-2.22-4.95-4.95v-39.87c0-2.73,2.22-4.95,4.95-4.95h165.04c2.73,0,4.95,2.22,4.95,4.95v39.87c0,2.73-2.22,4.95-4.95,4.95Zm-165.04-48.77c-2.18,0-3.95,1.77-3.95,3.95v39.87c0,2.18,1.77,3.95,3.95,3.95h165.04c2.18,0,3.95-1.77,3.95-3.95v-39.87c0-2.18-1.77-3.95-3.95-3.95H103.27Z" fill="#002346"/>
    </g>
    <g transform="matrix(1, 0, 0, 1, -39.085499, 50.884888)">
      <path d="M135.48,283.25c-3.66,4.57-10.33,5.3-14.9,1.64-4.57-3.66-5.3-10.33-1.64-14.9,3.66-4.57,10.33-5.3,14.9-1.64,0,0,0,0,0,0h0c4.56,3.65,5.3,10.31,1.65,14.88v.02Z" fill="#2a6f97"/>
      <path d="M127.2,287.71c-2.44,0-4.89-.8-6.93-2.43-4.78-3.83-5.55-10.83-1.72-15.6,1.85-2.31,4.5-3.77,7.45-4.09,2.95-.32,5.84,.52,8.16,2.37,4.75,3.81,5.54,10.76,1.76,15.54l-.05,.07c-2.19,2.73-5.42,4.15-8.67,4.15Zm.03-21.2c-.37,0-.75,.02-1.12,.06-2.68,.3-5.09,1.62-6.78,3.72-3.48,4.34-2.78,10.71,1.56,14.2,4.33,3.47,10.67,2.79,14.16-1.52l.05-.06c3.47-4.34,2.77-10.7-1.57-14.18-1.81-1.45-4.01-2.22-6.3-2.22Z" fill="#002346"/>
    </g>
    <path d="M 497.555 151.046 L 395.025 151.046 C 394.745 151.046 394.525 150.826 394.525 150.546 C 394.525 150.266 394.745 150.046 395.025 150.046 L 497.555 150.046 C 497.835 150.046 498.055 150.266 498.055 150.546 C 498.055 150.826 497.835 151.046 497.555 151.046 Z" fill="#002346"/>
    <path d="M 468.665 160.246 L 395.025 160.246 C 394.745 160.246 394.525 160.026 394.525 159.746 C 394.525 159.466 394.745 159.246 395.025 159.246 L 468.665 159.246 C 468.945 159.246 469.165 159.466 469.165 159.746 C 469.165 160.026 468.945 160.246 468.665 160.246 Z" fill="#002346"/>
    <g transform="matrix(1, 0, 0, 1, -39.085499, 50.884888)">
      <path d="M252.64,272.52h-102.53c-.28,0-.5-.22-.5-.5s.22-.5,.5-.5h102.53c.28,0,.5,.22,.5,.5s-.22,.5-.5,.5Z" fill="#002346"/>
      <path d="M223.75,281.72h-73.64c-.28,0-.5-.22-.5-.5s.22-.5,.5-.5h73.64c.28,0,.5,.22,.5,.5s-.22,.5-.5,.5Z" fill="#002346"/>
    </g>
    <path d="M 580.725 470.266 L 397.315 470.266 C 397.035 470.266 396.815 470.046 396.815 469.766 L 396.815 337.616 C 396.815 337.336 397.035 337.116 397.315 337.116 C 397.595 337.116 397.815 337.336 397.815 337.616 L 397.815 469.266 L 580.725 469.266 C 581.005 469.266 581.225 469.486 581.225 469.766 C 581.225 470.046 581.005 470.266 580.725 470.266 Z" fill="#002346"/>
    <g transform="matrix(1, 0, 0, 1, -39.085499, 50.884888)">
      <polyline points="408.92 103.28 413.26 107.62 419.67 100.9" fill="#fff"/>
      <path d="M413.26,108.13c-.13,0-.26-.05-.35-.15l-4.34-4.34c-.2-.2-.2-.51,0-.71s.51-.2,.71,0l3.98,3.98,6.06-6.35c.19-.2,.51-.21,.71-.02,.2,.19,.21,.51,.02,.71l-6.41,6.72c-.09,.1-.22,.15-.36,.16h0Z" fill="#002346"/>
    </g>
    <path d="M 87.175 331.016 C 87.045 331.016 86.915 330.966 86.825 330.866 L 82.485 326.526 C 82.285 326.326 82.285 326.016 82.485 325.816 C 82.685 325.616 82.995 325.616 83.195 325.816 L 87.175 329.796 L 93.235 323.446 C 93.425 323.246 93.745 323.236 93.945 323.426 C 94.145 323.616 94.155 323.936 93.965 324.136 L 87.555 330.856 C 87.465 330.956 87.335 331.006 87.195 331.016 L 87.175 331.016 Z" fill="#002346"/>
    <path d="M 372.655 222.946 C 368.795 222.946 365.655 219.806 365.655 215.946 C 365.655 212.086 368.795 208.946 372.655 208.946 C 376.515 208.946 379.655 212.086 379.655 215.946 C 379.655 219.806 376.515 222.946 372.655 222.946 Z M 372.655 209.946 C 369.345 209.946 366.655 212.636 366.655 215.946 C 366.655 219.256 369.345 221.946 372.655 221.946 C 375.965 221.946 378.655 219.256 378.655 215.946 C 378.655 212.636 375.965 209.946 372.655 209.946 Z" fill="#002346"/>
  </g>
</svg>