<svg width="1280" height="342" xmlns="http://www.w3.org/2000/svg" xmlns:xlink="http://www.w3.org/1999/xlink" overflow="hidden"><defs><clipPath id="clip0"><rect x="0" y="0" width="1280" height="342"/></clipPath></defs><g clip-path="url(#clip0)"><rect x="0" y="0" width="1280" height="342" fill="#FFFFFF"/><rect x="375" y="61" width="216" height="220" stroke="#156082" stroke-width="2" stroke-miterlimit="8" fill="#FFFFFF"/><text font-family="Aptos,Aptos_MSFontService,sans-serif" font-weight="400" font-size="24" transform="translate(444.095 92)">SAP BO</text><text font-family="Aptos,Aptos_MSFontService,sans-serif" font-weight="400" font-size="24" transform="translate(437.982 121)">Universe</text><path d="M56 100.333C56 80.8193 96.2944 65 146 65 195.706 65 236 80.8193 236 100.333L236 241.667C236 261.181 195.706 277 146 277 96.2944 277 56 261.181 56 241.667Z" fill="#FFFFFF" fill-rule="evenodd"/><path d="M236 100.333C236 119.847 195.706 135.667 146 135.667 96.2944 135.667 56 119.847 56 100.333" stroke="#156082" stroke-width="2" stroke-miterlimit="8" fill="none" fill-rule="evenodd"/><path d="M56 100.333C56 80.8193 96.2944 65 146 65 195.706 65 236 80.8193 236 100.333L236 241.667C236 261.181 195.706 277 146 277 96.2944 277 56 261.181 56 241.667Z" stroke="#156082" stroke-width="2" stroke-miterlimit="8" fill="none" fill-rule="evenodd"/><text font-family="Aptos,Aptos_MSFontService,sans-serif" font-weight="400" font-size="24" transform="translate(109.736 182)">Source</text><text font-family="Aptos,Aptos_MSFontService,sans-serif" font-weight="400" font-size="24" transform="translate(97.5628 211)">database</text><path d="M427 161 543 161 543 217.666 531.666 229 427 229Z" fill="#FFFFFF" fill-rule="evenodd"/><path d="M531.666 229 533.933 219.933 543 217.666Z" fill="#CDCDCD" fill-rule="evenodd"/><path d="M531.666 229 533.933 219.933 543 217.666 531.666 229 427 229 427 161 543 161 543 217.666" stroke="#156082" stroke-width="2" stroke-miterlimit="8" fill="none" fill-rule="evenodd"/><text font-family="Aptos,Aptos_MSFontService,sans-serif" font-weight="400" font-size="24" transform="translate(463.202 183)">SQL</text><text font-family="Aptos,Aptos_MSFontService,sans-serif" font-weight="400" font-size="24" transform="translate(453.356 212)">Query</text><path d="M1010 96.5C1010 76.8939 1050.29 61 1100 61 1149.71 61 1190 76.8939 1190 96.5L1190 238.5C1190 258.106 1149.71 274 1100 274 1050.29 274 1010 258.106 1010 238.5Z" fill="#FFFFFF" fill-rule="evenodd"/><path d="M1190 96.5C1190 116.106 1149.71 132 1100 132 1050.29 132 1010 116.106 1010 96.5" stroke="#156082" stroke-width="2" stroke-miterlimit="8" fill="none" fill-rule="evenodd"/><path d="M1010 96.5C1010 76.8939 1050.29 61 1100 61 1149.71 61 1190 76.8939 1190 96.5L1190 238.5C1190 258.106 1149.71 274 1100 274 1050.29 274 1010 258.106 1010 238.5Z" stroke="#156082" stroke-width="2" stroke-miterlimit="8" fill="none" fill-rule="evenodd"/><text font-family="Aptos,Aptos_MSFontService,sans-serif" font-weight="400" font-size="24" transform="translate(1068.96 178)">Target</text><text font-family="Aptos,Aptos_MSFontService,sans-serif" font-weight="400" font-size="24" transform="translate(1051.33 207)">database</text><path d="M706 19 706 342.478" stroke="#156082" stroke-width="2" stroke-miterlimit="8" stroke-dasharray="8 6" fill="none" fill-rule="evenodd"/><rect x="740" y="61" width="155" height="220" stroke="#156082" stroke-width="2" stroke-miterlimit="8" fill="#FFFFFF"/><text font-family="Aptos,Aptos_MSFontService,sans-serif" font-weight="700" font-size="24" transform="translate(772.984 150)">Biclever</text><text font-family="Aptos,Aptos_MSFontService,sans-serif" font-weight="700" font-size="24" transform="translate(776.498 179)">BO SQL</text><text font-family="Aptos,Aptos_MSFontService,sans-serif" font-weight="700" font-size="24" transform="translate(759.305 208)">Connector</text><path d="M1.41255e-06-1 141.982-0.999799 141.982 1.0002-1.41255e-06 1ZM140.649-3.9998 148.649 0.000209974 140.649 4.0002Z" fill="#156082" transform="matrix(1 0 0 -1 895 171)"/><path d="M216 170 368.808 170 368.808 172 216 172ZM367.475 167 375.475 171 367.475 175Z" fill="#156082"/><path d="M591 170 733.137 170 733.137 172 591 172ZM731.804 167 739.804 171 731.804 175Z" fill="#156082"/><text font-family="Aptos,Aptos_MSFontService,sans-serif" font-weight="400" font-size="24" transform="translate(612.848 207)">SAP BO</text><text font-family="Aptos,Aptos_MSFontService,sans-serif" font-weight="400" font-size="24" transform="translate(615.408 236)">Restful</text><text font-family="Aptos,Aptos_MSFontService,sans-serif" font-weight="400" font-size="24" transform="translate(637.335 265)">API</text><text font-family="Aptos,Aptos_MSFontService,sans-serif" font-weight="400" font-size="24" transform="translate(924.164 236)">JDBC</text><text font-family="Aptos,Aptos_MSFontService,sans-serif" font-weight="400" font-size="24" transform="translate(262.775 222)">universe</text><text font-family="Aptos,Aptos_MSFontService,sans-serif" font-weight="400" font-size="24" transform="translate(247.875 251)">connection</text></g></svg>